<?xml version="1.0" encoding="utf-8"?>
<!-- Generator: Adobe Illustrator 16.0.0, SVG Export Plug-In . SVG Version: 6.00 Build 0)  -->
<!DOCTYPE svg PUBLIC "-//W3C//DTD SVG 1.1//EN" "http://www.w3.org/Graphics/SVG/1.1/DTD/svg11.dtd">
<svg version="1.1" id="Layer_1" xmlns="http://www.w3.org/2000/svg" xmlns:xlink="http://www.w3.org/1999/xlink" x="0px" y="0px"
	 width="32px" height="32px" viewBox="74 74 32 32" enable-background="new 74 74 32 32" xml:space="preserve">
<path fill="#424969" d="M105.25,86.467h-0.342v-0.009h-0.447v-0.004h-0.447v-0.007h-0.209c-0.141-0.002-0.285-0.004-0.428-0.006
	c-0.08,0-0.188,0.013-0.254-0.007h-0.313c-0.221-0.004-0.438-0.007-0.658-0.012h-0.238c-0.043,0-0.098,0.002-0.133-0.007h-0.342
	c-0.215-0.004-0.428-0.008-0.643-0.013h-0.264c-0.029,0-0.078,0.009-0.096-0.007h-0.453c-0.004,0.009-0.01,0.018-0.014,0.027
	c-0.021,0.019-0.041,0.037-0.064,0.061v0.009c-0.018,0.015-0.035,0.032-0.057,0.049v0.007c-0.004,0.001-0.008,0.004-0.01,0.009
	v0.009c-0.025,0.021-0.049,0.042-0.072,0.067v0.009c-0.021,0.021-0.045,0.042-0.07,0.068v0.009
	c-0.018,0.018-0.039,0.038-0.061,0.056v0.013h-0.006c-0.006,0.004-0.01,0.012-0.014,0.018c-0.018,0.016-0.035,0.03-0.049,0.049
	v0.007c-0.023,0.022-0.047,0.042-0.07,0.063v0.014c-0.025,0.02-0.047,0.041-0.07,0.062v0.013c-0.021,0.021-0.045,0.042-0.068,0.066
	v0.009c-0.023,0.021-0.047,0.043-0.07,0.064v0.011c-0.021,0.019-0.041,0.039-0.063,0.058v0.011h-0.006
	c-0.004,0.007-0.008,0.013-0.012,0.02c-0.02,0.015-0.035,0.03-0.053,0.044v0.011c-0.021,0.024-0.045,0.043-0.07,0.064v0.013
	c-0.021,0.021-0.045,0.042-0.066,0.063v0.013c-0.025,0.02-0.047,0.041-0.07,0.062v0.013c-0.023,0.021-0.047,0.042-0.07,0.063v0.011
	c-0.004,0.005-0.006,0.005-0.012,0.007v0.007c-0.02,0.015-0.037,0.034-0.057,0.049v0.013c-0.021,0.02-0.043,0.038-0.063,0.057v0.013
	c-0.023,0.022-0.047,0.042-0.07,0.063v0.015c-0.025,0.02-0.047,0.041-0.07,0.062v0.013c-0.021,0.021-0.045,0.042-0.068,0.063v0.012
	c-0.004,0.003-0.01,0.004-0.014,0.005v0.008c-0.016,0.017-0.037,0.033-0.057,0.049v0.013c-0.021,0.021-0.045,0.043-0.068,0.064
	v0.012c-0.021,0.02-0.041,0.037-0.064,0.056v0.013c-0.021,0.021-0.045,0.042-0.07,0.063v0.013c-0.002,0.001-0.006,0.002-0.01,0.007
	v0.007c-0.02,0.017-0.037,0.034-0.057,0.049v0.015c-0.025,0.019-0.047,0.041-0.07,0.062v0.013c-0.023,0.021-0.047,0.042-0.068,0.063
	v0.013c-0.006,0.001-0.01,0.004-0.014,0.006v0.006c-0.02,0.018-0.037,0.035-0.057,0.05v0.014c-0.021,0.017-0.043,0.036-0.063,0.056
	v0.013H97.92c-0.004,0.006-0.01,0.011-0.012,0.019c-0.018,0.014-0.033,0.029-0.051,0.045v0.011
	c-0.021,0.021-0.045,0.042-0.068,0.063v0.013c-0.004,0.003-0.01,0.004-0.014,0.009v0.005c-0.02,0.016-0.037,0.033-0.057,0.05v0.013
	c-0.023,0.02-0.047,0.041-0.068,0.063v0.013c-0.006,0.001-0.01,0.002-0.014,0.006v0.004c-0.018,0.017-0.039,0.035-0.057,0.051v0.011
	c-0.023,0.023-0.047,0.042-0.068,0.063v0.014c-0.021,0.02-0.043,0.038-0.064,0.061v0.009c-0.021,0.02-0.047,0.042-0.068,0.063v0.013
	c-0.023,0.021-0.047,0.041-0.07,0.063v0.012c-0.023,0.021-0.045,0.042-0.068,0.063v0.012c-0.006,0.003-0.008,0.004-0.014,0.009
	v0.004c-0.02,0.018-0.037,0.034-0.057,0.051v0.011c-0.023,0.022-0.045,0.044-0.07,0.064v0.014c-0.004,0.001-0.008,0.004-0.012,0.009
	v0.002c-0.016,0.015-0.033,0.029-0.051,0.049v0.008c-0.021,0.021-0.045,0.042-0.07,0.067v0.009
	c-0.004,0.001-0.008,0.004-0.012,0.005v0.007c-0.02,0.017-0.037,0.034-0.057,0.055v0.009c-0.021,0.021-0.047,0.041-0.068,0.067
	v0.007c-0.006,0.003-0.01,0.004-0.014,0.007v0.006c-0.018,0.017-0.039,0.034-0.057,0.053v0.01c-0.023,0.023-0.047,0.043-0.068,0.064
	v0.012c-0.021,0.02-0.043,0.038-0.064,0.057v0.013c-0.021,0.02-0.043,0.037-0.063,0.056c-0.002,0.007-0.002,0.012-0.006,0.02
	c-0.004,0.001-0.01,0.004-0.014,0.005c-0.008,0.01-0.016,0.022-0.025,0.031c-0.01,0.008-0.02,0.018-0.031,0.024v0.014
	c-0.023,0.02-0.045,0.041-0.068,0.064V90.3c-0.006,0.003-0.008,0.006-0.012,0.008v0.007c-0.02,0.016-0.037,0.032-0.059,0.054v0.007
	c-0.021,0.022-0.045,0.044-0.07,0.065v0.013c-0.004,0.001-0.006,0.003-0.012,0.006v0.006c-0.018,0.017-0.037,0.034-0.055,0.054v0.01
	c-0.021,0.02-0.043,0.037-0.064,0.055V90.6h-0.006c-0.004,0.005-0.01,0.01-0.012,0.018c-0.018,0.014-0.035,0.029-0.051,0.042v0.015
	c-0.023,0.02-0.047,0.041-0.07,0.063v0.012c-0.023,0.023-0.047,0.043-0.068,0.063v0.013c-0.023,0.018-0.043,0.038-0.064,0.058
	c-0.002,0.007-0.004,0.011-0.006,0.019c-0.004,0.002-0.008,0.002-0.012,0.006c-0.008,0.011-0.018,0.022-0.025,0.032
	c-0.012,0.009-0.023,0.017-0.033,0.024v0.014c-0.02,0.018-0.041,0.037-0.063,0.057v0.013h-0.006c-0.006,0.005-0.01,0.011-0.014,0.02
	c-0.016,0.013-0.035,0.028-0.051,0.042v0.013c-0.021,0.021-0.045,0.042-0.068,0.063v0.013c-0.004,0.002-0.01,0.005-0.014,0.006
	v0.007c-0.018,0.016-0.037,0.033-0.057,0.051v0.012c-0.021,0.021-0.045,0.041-0.068,0.063v0.014
	c-0.025,0.021-0.047,0.041-0.068,0.063v0.014c-0.021,0.018-0.043,0.037-0.064,0.056v0.013c-0.021,0.02-0.043,0.039-0.064,0.057
	c0,0.007-0.002,0.012-0.004,0.02c-0.004,0.002-0.01,0.004-0.014,0.006c-0.008,0.011-0.016,0.021-0.025,0.031
	s-0.02,0.018-0.031,0.026v0.011c-0.023,0.021-0.047,0.043-0.068,0.063v0.013c-0.006,0.003-0.008,0.005-0.016,0.007v0.007
	c-0.02,0.017-0.035,0.034-0.055,0.051v0.013c-0.023,0.021-0.045,0.041-0.07,0.063v0.013c-0.023,0.022-0.045,0.042-0.068,0.063v0.012
	c-0.021,0.021-0.043,0.039-0.064,0.059v0.011c-0.02,0.019-0.039,0.038-0.063,0.057c-0.002,0.006-0.002,0.015-0.004,0.02
	c-0.006,0.003-0.01,0.003-0.016,0.007c-0.006,0.01-0.016,0.021-0.023,0.031c-0.01,0.008-0.021,0.018-0.031,0.024v0.013
	c-0.023,0.021-0.047,0.042-0.07,0.063v0.014c-0.004,0.001-0.008,0.005-0.014,0.009v0.004c-0.018,0.017-0.037,0.033-0.055,0.049
	v0.015c-0.023,0.02-0.047,0.041-0.07,0.062v0.013c-0.021,0.02-0.041,0.039-0.063,0.061v0.008c-0.023,0.021-0.045,0.043-0.07,0.063
	v0.015c-0.023,0.021-0.045,0.042-0.068,0.063v0.012c-0.004,0.002-0.01,0.004-0.014,0.01v0.004c-0.018,0.016-0.037,0.031-0.057,0.049
	v0.013c-0.023,0.021-0.045,0.043-0.068,0.063v0.013c-0.025,0.021-0.047,0.043-0.07,0.063v0.013c-0.021,0.02-0.047,0.041-0.068,0.063
	v0.011c-0.004,0.002-0.008,0.005-0.014,0.009v0.004c-0.016,0.015-0.033,0.028-0.049,0.05v0.007c-0.025,0.022-0.047,0.043-0.07,0.066
	v0.009c-0.023,0.021-0.047,0.043-0.07,0.068v0.007c-0.004,0.004-0.008,0.005-0.012,0.008v0.007
	c-0.018,0.017-0.037,0.034-0.057,0.049v0.014c-0.023,0.021-0.045,0.041-0.07,0.067v0.008c-0.023,0.021-0.045,0.042-0.068,0.063
	v0.013c-0.006,0.001-0.008,0.003-0.014,0.006v0.008c-0.016,0.014-0.033,0.027-0.051,0.044v0.012
	c-0.023,0.021-0.045,0.041-0.068,0.063v0.012c-0.004,0.004-0.01,0.007-0.014,0.007v0.005c-0.018,0.02-0.037,0.036-0.055,0.056v0.008
	c-0.025,0.021-0.047,0.043-0.072,0.068v0.01c-0.002,0.001-0.006,0.003-0.012,0.004v0.007c-0.02,0.02-0.035,0.034-0.057,0.056v0.008
	c-0.021,0.021-0.045,0.041-0.066,0.062v0.016c-0.023,0.018-0.045,0.037-0.066,0.056v0.012c-0.021,0.021-0.043,0.043-0.068,0.063
	v0.014C93.047,93.977,93.025,94,93,94.02v0.012c-0.004,0.003-0.008,0.005-0.012,0.007v0.007c-0.018,0.018-0.037,0.034-0.057,0.05
	v0.013c-0.023,0.021-0.045,0.042-0.068,0.063v0.011c-0.006,0.004-0.01,0.005-0.014,0.009v0.005c-0.02,0.017-0.037,0.034-0.057,0.051
	v0.012c-0.023,0.021-0.047,0.042-0.07,0.064v0.014c-0.002,0-0.006,0.003-0.012,0.004v0.008c-0.018,0.015-0.033,0.029-0.051,0.045
	v0.011c-0.021,0.021-0.047,0.042-0.068,0.063v0.012c-0.004,0.003-0.01,0.005-0.012,0.007v0.008
	c-0.021,0.018-0.039,0.033-0.059,0.049v0.012c-0.023,0.023-0.045,0.044-0.07,0.066v0.011c-0.002,0.001-0.008,0.005-0.012,0.007
	v0.006c-0.02,0.018-0.039,0.033-0.055,0.051v0.013c-0.025,0.021-0.049,0.042-0.07,0.063v0.012c-0.023,0.021-0.043,0.039-0.064,0.058
	v0.012c-0.023,0.022-0.045,0.043-0.068,0.063v0.014c-0.023,0.021-0.049,0.042-0.072,0.063v0.012
	c-0.004,0.003-0.008,0.003-0.01,0.005v0.009c-0.02,0.017-0.039,0.033-0.057,0.05v0.013c-0.023,0.021-0.047,0.041-0.07,0.063v0.015
	c-0.006,0.001-0.008,0.004-0.012,0.005v0.008c-0.02,0.017-0.039,0.033-0.057,0.05v0.012c-0.021,0.02-0.045,0.039-0.064,0.057v0.013
	c-0.021,0.023-0.045,0.042-0.068,0.063v0.014c-0.023,0.02-0.045,0.041-0.07,0.063v0.011c-0.004,0.003-0.008,0.006-0.012,0.01v0.002
	c-0.02,0.02-0.037,0.035-0.059,0.054v0.012c-0.021,0.021-0.045,0.042-0.068,0.063v0.013c-0.023,0.021-0.047,0.042-0.068,0.063v0.014
	c-0.004,0.002-0.01,0.004-0.014,0.008v0.005c-0.018,0.016-0.037,0.033-0.057,0.051v0.014c-0.021,0.018-0.041,0.035-0.063,0.06v0.007
	h-0.006c-0.006,0.009-0.01,0.015-0.014,0.021c-0.018,0.015-0.035,0.029-0.051,0.044v0.012c-0.023,0.021-0.047,0.042-0.068,0.063
	v0.014c-0.004,0-0.008,0.002-0.014,0.005v0.007c-0.018,0.017-0.037,0.035-0.057,0.051v0.011c-0.021,0.023-0.045,0.042-0.066,0.065
	v0.012c-0.025,0.021-0.049,0.043-0.072,0.063V96.2c-0.021,0.019-0.041,0.038-0.063,0.063v0.009
	c-0.023,0.021-0.047,0.041-0.068,0.066v0.008c-0.023,0.021-0.047,0.041-0.072,0.062v0.015c-0.002,0.001-0.008,0.004-0.01,0.005
	v0.008c-0.021,0.017-0.039,0.032-0.059,0.053v0.011c-0.021,0.02-0.047,0.042-0.068,0.065v0.009
	c-0.023,0.022-0.047,0.044-0.068,0.068v0.01c-0.021,0.018-0.043,0.037-0.064,0.06v0.007h-0.006c-0.006,0.009-0.008,0.014-0.014,0.02
	c-0.016,0.015-0.033,0.03-0.05,0.044v0.013c-0.022,0.023-0.046,0.043-0.068,0.064v0.011c-0.023,0.021-0.047,0.043-0.071,0.068v0.008
	c-0.022,0.021-0.045,0.042-0.068,0.068v0.008c-0.005,0.001-0.008,0.004-0.013,0.005v0.009c-0.019,0.017-0.039,0.032-0.057,0.054
	v0.009c-0.022,0.021-0.045,0.042-0.07,0.063v0.014c-0.003,0.001-0.007,0.003-0.012,0.006v0.005c-0.016,0.017-0.033,0.029-0.05,0.046
	v0.013c-0.022,0.02-0.048,0.041-0.071,0.062v0.013c-0.022,0.021-0.045,0.042-0.069,0.063v0.014
	c-0.021,0.019-0.041,0.038-0.063,0.056c-0.002,0.008-0.004,0.013-0.006,0.02c-0.003,0.003-0.008,0.004-0.012,0.007
	c-0.008,0.012-0.017,0.021-0.025,0.03c-0.011,0.009-0.022,0.018-0.032,0.026v0.018c-0.024,0.021-0.047,0.04-0.07,0.061v0.015
	c-0.014,0.01-0.025,0.021-0.038,0.029c-0.007,0.009-0.013,0.017-0.019,0.025h-0.005v0.016c-0.022,0.019-0.042,0.037-0.065,0.058
	c-0.001,0.006-0.004,0.011-0.005,0.018c-0.023,0.021-0.047,0.041-0.07,0.063c-0.005,0.008,0.002,0.001-0.006,0.006
	c-3.887-3.813-7.774-7.626-11.662-11.442h-2.233c-0.114,0-0.218,0-0.302,0.027h-0.032v0.006c-0.017,0.002-0.034,0.004-0.051,0.006
	v0.007c-0.014,0.001-0.029,0.003-0.044,0.006v0.007c-0.006,0-0.012,0-0.019,0.003v0.002h-0.019v0.007
	c-0.012,0.001-0.025,0.004-0.038,0.006v0.005c-0.004,0-0.007,0-0.012,0.001v0.006h-0.019v0.007
	c-0.012,0.001-0.022,0.004-0.033,0.005v0.006c-0.004,0-0.008,0-0.013,0.002v0.004h-0.019v0.007
	c-0.012,0.002-0.025,0.006-0.037,0.014v0.005h-0.013v0.005h-0.014v0.007h-0.012v0.005c-0.005,0-0.009,0-0.014,0.003v0.004h-0.012
	v0.005h-0.013c-0.002,0.004-0.004,0.008-0.006,0.013c-0.009,0.002-0.018,0.004-0.026,0.005c-0.001,0.004-0.004,0.01-0.006,0.012
	c-0.009,0.002-0.017,0.004-0.025,0.009v0.005c-0.006,0.001-0.013,0.002-0.02,0.004c-0.002,0.004-0.003,0.01-0.006,0.014h-0.013
	c-0.002,0.002-0.004,0.009-0.006,0.011H74.78c-0.003,0.006-0.005,0.008-0.007,0.014H74.76c-0.004,0.006-0.009,0.012-0.012,0.019
	h-0.014c-0.003,0.006-0.007,0.013-0.011,0.02h-0.013c-0.004,0.005-0.008,0.012-0.013,0.019h-0.012
	c-0.01,0.012-0.021,0.025-0.031,0.038H74.64c-0.019,0.021-0.038,0.041-0.056,0.062c-0.023,0.021-0.046,0.043-0.069,0.064v0.012
	c-0.013,0.011-0.025,0.021-0.039,0.031v0.013c-0.006,0.004-0.013,0.008-0.019,0.014v0.013c-0.006,0.002-0.013,0.006-0.019,0.011
	v0.012c-0.007,0.004-0.014,0.009-0.02,0.013v0.013c-0.004,0.002-0.008,0.004-0.012,0.006c-0.002,0.007-0.005,0.012-0.006,0.02
	c-0.002,0-0.004,0-0.006,0.004v0.007c-0.004,0.002-0.009,0.006-0.013,0.007c-0.002,0.007-0.003,0.012-0.006,0.02h-0.006
	c-0.002,0.006-0.004,0.015-0.007,0.025c-0.003,0.001-0.007,0.002-0.013,0.006c-0.001,0.007-0.004,0.015-0.004,0.025
	c-0.006,0.002-0.009,0.004-0.013,0.006v0.013h-0.007v0.012h-0.006v0.013h-0.006v0.011c-0.003,0-0.005,0-0.007,0.005v0.01h-0.006
	v0.013h-0.005c-0.006,0.012-0.01,0.025-0.013,0.037h-0.007v0.018h-0.006v0.014h-0.007v0.019h-0.006v0.013h-0.007
	c-0.017,0.051-0.033,0.102-0.05,0.152c-0.013,0.063-0.025,0.126-0.038,0.188v0.056c-0.015,0.052-0.007,0.135-0.007,0.196v0.083
	h0.007v0.058h0.006v0.042h0.006v0.032h0.007v0.031h0.006v0.033h0.006v0.025h0.007v0.025c0.017,0.051,0.034,0.102,0.05,0.152
	c0.002,0,0.005,0,0.006,0.003v0.009h0.006v0.02h0.007v0.012h0.006v0.02h0.007c0.004,0.011,0.007,0.026,0.013,0.037
	c0.001,0,0.003,0,0.006,0.004v0.009h0.005v0.012c0.003,0,0.004,0,0.008,0.004v0.008h0.005v0.014c0.002,0,0.004,0,0.006,0.003v0.008
	h0.007v0.013c0.004,0.001,0.008,0.002,0.013,0.006c0.001,0.008,0.003,0.017,0.004,0.025c0.006,0.001,0.01,0.004,0.014,0.006
	c0.002,0.009,0.004,0.017,0.006,0.025h0.006c0.002,0.007,0.004,0.013,0.006,0.02c0.005,0.003,0.009,0.004,0.013,0.006v0.013h0.006
	c0.001,0.006,0.004,0.013,0.006,0.018c0.004,0.003,0.008,0.004,0.012,0.012v0.008c0.007,0.004,0.013,0.009,0.02,0.017v0.007
	c0.005,0.006,0.012,0.008,0.02,0.018v0.009c0.003,0.001,0.007,0.004,0.012,0.007v0.012c0.012,0.009,0.025,0.021,0.037,0.032
	c0.035,0.034,0.066,0.067,0.095,0.108c0.013,0.011,0.026,0.021,0.038,0.032c0.037,0.035,0.071,0.07,0.102,0.112
	c0.012,0.01,0.025,0.021,0.038,0.033c0.037,0.037,0.074,0.075,0.106,0.118c0.013,0.011,0.026,0.021,0.038,0.031
	c0.037,0.038,0.072,0.071,0.103,0.115c0.012,0.01,0.024,0.021,0.036,0.031c0.038,0.037,0.071,0.071,0.102,0.113
	c0.047,0.045,0.092,0.089,0.139,0.134c0.032,0.042,0.069,0.08,0.107,0.119c0.013,0.011,0.025,0.021,0.038,0.032
	c0.031,0.041,0.065,0.077,0.101,0.114c0.013,0.01,0.026,0.021,0.038,0.03v0.014h0.006c0.006,0.007,0.013,0.017,0.019,0.024
	c0.038,0.037,0.076,0.072,0.114,0.108c0.029,0.042,0.064,0.078,0.1,0.113c0.013,0.01,0.025,0.021,0.038,0.031v0.013
	c0.006,0.004,0.013,0.008,0.019,0.013c0.015,0.017,0.03,0.034,0.043,0.05c0.026,0.023,0.051,0.047,0.076,0.07
	c0.032,0.044,0.069,0.082,0.108,0.119c0.013,0.011,0.024,0.023,0.037,0.033v0.013c0.006,0.004,0.013,0.008,0.019,0.011
	c0.015,0.019,0.029,0.034,0.043,0.051c0.026,0.024,0.051,0.047,0.076,0.071c0.03,0.042,0.064,0.077,0.102,0.111
	c0.012,0.012,0.024,0.021,0.037,0.033c0.031,0.042,0.064,0.078,0.101,0.113c0.013,0.011,0.027,0.021,0.039,0.031
	c0.032,0.045,0.068,0.082,0.106,0.121c0.012,0.01,0.025,0.021,0.038,0.03v0.013c0.044,0.043,0.088,0.084,0.132,0.127
	c0.002,0.006,0.004,0.012,0.007,0.018c0.012,0.012,0.025,0.021,0.038,0.033c0.036,0.035,0.07,0.072,0.101,0.113
	c0.012,0.01,0.025,0.021,0.038,0.031c0.036,0.037,0.07,0.07,0.101,0.113c0.038,0.037,0.076,0.072,0.113,0.107
	c0.007,0.008,0.012,0.018,0.019,0.026c0.004,0,0.008,0.003,0.012,0.006v0.011c0.012,0.01,0.026,0.021,0.039,0.031
	c0.036,0.037,0.07,0.073,0.101,0.114c0.012,0.011,0.024,0.021,0.037,0.032c0.036,0.037,0.07,0.07,0.102,0.113
	c0.046,0.045,0.092,0.088,0.139,0.133v0.014c0.026,0.023,0.055,0.049,0.082,0.074c0.013,0.016,0.025,0.029,0.038,0.046
	c0.006,0.003,0.012,0.009,0.019,0.011v0.013c0.046,0.045,0.092,0.089,0.138,0.131c0.003,0.009,0.005,0.015,0.007,0.021
	c0.013,0.01,0.026,0.021,0.038,0.03c0.036,0.035,0.071,0.072,0.101,0.113c0.014,0.012,0.025,0.021,0.038,0.034
	c0.036,0.034,0.07,0.069,0.102,0.112c0.012,0.01,0.024,0.021,0.038,0.031c0.036,0.035,0.07,0.07,0.101,0.114
	c0.025,0.022,0.05,0.045,0.076,0.07c0.014,0.016,0.029,0.034,0.043,0.051c0.01,0.005,0.018,0.011,0.025,0.022v0.009
	c0.013,0.01,0.026,0.021,0.039,0.031c0.036,0.036,0.071,0.071,0.101,0.113c0.03,0.027,0.059,0.053,0.087,0.082
	c0.043,0.046,0.085,0.093,0.127,0.139c0.021,0.02,0.042,0.039,0.063,0.056c0.033,0.045,0.07,0.081,0.108,0.121
	c0.012,0.011,0.025,0.021,0.038,0.031V93.6c0.006,0.004,0.013,0.01,0.019,0.015c0.015,0.016,0.029,0.033,0.044,0.05
	c0.025,0.022,0.051,0.045,0.076,0.069c0.031,0.042,0.065,0.077,0.101,0.114c0.013,0.01,0.027,0.021,0.038,0.028
	c0.031,0.043,0.064,0.077,0.102,0.116c0.013,0.01,0.025,0.021,0.038,0.031c0.031,0.042,0.066,0.076,0.1,0.113
	c0.013,0.011,0.027,0.021,0.039,0.032v0.012h0.006c0.004,0.006,0.008,0.012,0.013,0.019c0.042,0.041,0.084,0.08,0.126,0.12v0.013
	c0.005,0.004,0.012,0.008,0.019,0.011c0.01,0.015,0.02,0.027,0.031,0.039c0.03,0.027,0.059,0.056,0.089,0.083
	c0.03,0.042,0.063,0.077,0.1,0.114c0.013,0.01,0.025,0.021,0.038,0.03c0.03,0.042,0.064,0.077,0.1,0.114
	c0.013,0.012,0.026,0.021,0.039,0.035v0.009c0.043,0.04,0.088,0.083,0.132,0.127v0.005c0.004,0.003,0.008,0.004,0.012,0.011v0.008
	c0.012,0.011,0.025,0.021,0.038,0.033c0.036,0.034,0.07,0.071,0.101,0.113c0.012,0.01,0.025,0.021,0.038,0.033
	c0.037,0.037,0.07,0.071,0.1,0.112c0.047,0.043,0.093,0.088,0.14,0.133c0.032,0.043,0.069,0.081,0.107,0.118
	c0.012,0.012,0.024,0.023,0.037,0.032v0.013c0.045,0.042,0.089,0.084,0.132,0.126c0.003,0.007,0.005,0.013,0.007,0.02l0.038,0.03
	c0.035,0.036,0.071,0.073,0.102,0.115c0.011,0.009,0.024,0.021,0.037,0.03c0.035,0.036,0.07,0.071,0.101,0.116
	c0.046,0.042,0.093,0.087,0.139,0.13c0.032,0.045,0.069,0.082,0.107,0.122c0.013,0.009,0.025,0.019,0.038,0.029
	c0.03,0.044,0.066,0.079,0.102,0.115c0.012,0.011,0.025,0.02,0.038,0.029v0.015h0.007c0.004,0.009,0.012,0.017,0.017,0.023
	c0.038,0.036,0.077,0.072,0.114,0.109c0.029,0.041,0.064,0.075,0.101,0.112c0.012,0.012,0.025,0.021,0.038,0.033
	c0.032,0.043,0.068,0.081,0.107,0.117c0.013,0.012,0.025,0.022,0.038,0.037v0.009h0.007c0.006,0.008,0.012,0.017,0.018,0.025
	c0.038,0.037,0.077,0.071,0.114,0.107c0.031,0.042,0.065,0.077,0.1,0.112c0.014,0.012,0.025,0.021,0.038,0.033v0.013
	c0.006,0.004,0.013,0.008,0.02,0.012c0.015,0.017,0.029,0.032,0.045,0.051c0.024,0.022,0.049,0.045,0.075,0.068
	c0.032,0.044,0.069,0.082,0.107,0.12c0.013,0.01,0.025,0.021,0.038,0.031v0.011c0.006,0.006,0.013,0.01,0.019,0.016
	c0.015,0.016,0.03,0.032,0.044,0.049c0.026,0.022,0.05,0.046,0.077,0.07c0.03,0.042,0.064,0.077,0.1,0.112
	c0.013,0.011,0.026,0.022,0.038,0.031c0.031,0.041,0.066,0.077,0.102,0.114c0.013,0.009,0.025,0.022,0.038,0.03
	c0.031,0.042,0.065,0.079,0.102,0.116c0.012,0.009,0.025,0.02,0.038,0.029v0.014c0.044,0.042,0.088,0.083,0.132,0.125v0.007
	c0.004,0.005,0.008,0.006,0.013,0.007v0.012c0.012,0.011,0.026,0.021,0.039,0.032c0.035,0.035,0.07,0.073,0.1,0.113
	c0.013,0.011,0.025,0.021,0.038,0.031c0.037,0.037,0.071,0.071,0.101,0.113c0.03,0.028,0.06,0.056,0.089,0.081
	c0.043,0.05,0.087,0.098,0.132,0.146c0.021,0.019,0.042,0.038,0.063,0.057c0.03,0.042,0.064,0.078,0.101,0.113
	c0.013,0.011,0.025,0.021,0.038,0.031v0.014c0.006,0.003,0.012,0.008,0.019,0.012c0.015,0.017,0.029,0.034,0.044,0.051
	c0.025,0.023,0.05,0.045,0.075,0.069c0.031,0.041,0.066,0.076,0.101,0.113c0.013,0.011,0.026,0.021,0.039,0.031
	c0.032,0.044,0.07,0.083,0.107,0.119c0.012,0.012,0.026,0.022,0.038,0.033c0.03,0.041,0.064,0.077,0.101,0.112
	c0.012,0.012,0.025,0.022,0.038,0.036v0.009c0.044,0.042,0.087,0.083,0.132,0.125c0.002,0.008,0.004,0.013,0.006,0.019
	c0.012,0.012,0.025,0.021,0.038,0.034c0.037,0.035,0.07,0.07,0.101,0.112c0.013,0.01,0.025,0.021,0.038,0.031
	c0.036,0.037,0.07,0.072,0.102,0.112c0.029,0.029,0.058,0.057,0.088,0.083c0.043,0.049,0.088,0.099,0.132,0.146
	c0.021,0.02,0.042,0.038,0.063,0.057c0.029,0.041,0.063,0.076,0.1,0.114c0.012,0.01,0.026,0.021,0.038,0.031
	c0.031,0.04,0.065,0.077,0.101,0.114c0.013,0.009,0.026,0.021,0.038,0.031v0.013c0.004,0.001,0.008,0.004,0.012,0.005
	c0.007,0.008,0.013,0.019,0.019,0.025c0.038,0.037,0.076,0.072,0.114,0.108c0.031,0.041,0.065,0.074,0.102,0.112
	c0.011,0.011,0.025,0.021,0.036,0.031v0.014c0.007,0.004,0.013,0.009,0.02,0.013c0.015,0.017,0.028,0.032,0.044,0.05
	c0.025,0.022,0.05,0.045,0.076,0.07c0.03,0.042,0.064,0.076,0.1,0.113c0.012,0.009,0.025,0.02,0.038,0.031
	c0.032,0.045,0.069,0.081,0.107,0.119c0.013,0.011,0.025,0.021,0.038,0.032v0.012c0.045,0.043,0.088,0.084,0.133,0.127
	c0.003,0.005,0.004,0.011,0.006,0.02c0.014,0.01,0.025,0.021,0.04,0.029c0.036,0.038,0.071,0.071,0.1,0.114
	c0.013,0.012,0.026,0.02,0.038,0.031c0.037,0.037,0.071,0.072,0.102,0.114c0.025,0.023,0.05,0.046,0.076,0.069
	c0.015,0.017,0.029,0.034,0.043,0.05c0.007,0.004,0.014,0.009,0.02,0.013v0.014c0.013,0.011,0.025,0.02,0.037,0.031
	c0.04,0.039,0.076,0.076,0.11,0.119c0.044,0.044,0.091,0.089,0.138,0.132c0.03,0.042,0.065,0.078,0.1,0.115
	c0.013,0.008,0.025,0.019,0.038,0.034v0.008c0.004,0.001,0.009,0.004,0.014,0.006c0.008,0.012,0.017,0.022,0.025,0.033
	c0.032,0.031,0.066,0.063,0.1,0.094c0.032,0.044,0.071,0.083,0.107,0.121c0.014,0.01,0.025,0.021,0.039,0.03
	c0.03,0.041,0.065,0.077,0.101,0.114c0.013,0.011,0.025,0.02,0.038,0.031v0.012h0.005c0.006,0.009,0.013,0.018,0.02,0.026
	c0.036,0.035,0.076,0.07,0.113,0.107c0.031,0.042,0.064,0.075,0.101,0.113c0.013,0.011,0.026,0.02,0.037,0.036v0.007
	c0.009,0.007,0.017,0.014,0.026,0.019c0.015,0.018,0.03,0.034,0.045,0.052c0.025,0.022,0.051,0.047,0.076,0.068
	c0.029,0.042,0.065,0.078,0.1,0.113c0.012,0.012,0.025,0.021,0.038,0.032v0.012c0.02,0.02,0.042,0.039,0.062,0.059
	c0.008,0.009,0.017,0.021,0.026,0.031h0.019c0.011,0.012,0.021,0.023,0.031,0.038h0.014c0.003,0.004,0.008,0.011,0.011,0.019h0.013
	c0.004,0.005,0.01,0.011,0.012,0.019h0.013c0.004,0.007,0.01,0.012,0.013,0.02h0.013c0.001,0.004,0.004,0.008,0.007,0.011h0.011
	c0.003,0.005,0.006,0.01,0.006,0.014h0.013l0.006,0.012h0.014c0.001,0.005,0.002,0.009,0.006,0.013h0.011v0.006h0.014
	c0.002,0.007,0.004,0.011,0.006,0.015c0.009,0.001,0.017,0.002,0.025,0.005c0.002,0.004,0.005,0.009,0.007,0.013h0.013v0.006h0.011
	v0.007h0.014v0.008c0.003,0,0.008,0,0.012,0.001v0.004h0.013v0.007h0.011v0.006c0.014,0.004,0.025,0.009,0.04,0.013v0.008h0.017
	v0.007h0.014v0.004c0.01,0.004,0.021,0.005,0.031,0.009v0.006h0.02v0.005h0.012v0.008c0.005,0,0.013,0,0.02,0.001v0.004h0.019v0.007
	h0.02v0.007h0.018v0.007h0.026c0.104,0.038,0.231,0.056,0.372,0.056c0.054,0,0.121,0.006,0.165-0.006
	c0.045-0.004,0.092-0.008,0.138-0.012v-0.008h0.032v-0.006h0.031v-0.006h0.025v-0.008h0.025v-0.006h0.02v-0.005h0.022v-0.009h0.02
	v-0.006h0.019v-0.006h0.021v-0.005h0.018v-0.008h0.014v-0.006h0.019v-0.01c0.012-0.002,0.021-0.004,0.033-0.008V103.6h0.011v-0.006
	h0.02v-0.007c0.013-0.004,0.026-0.01,0.037-0.016v-0.004h0.014v-0.008h0.011v-0.005h0.013v-0.007h0.013v-0.009h0.013v-0.004h0.012
	c0.003-0.006,0.004-0.009,0.005-0.013c0.01-0.002,0.019-0.004,0.027-0.006c0.002-0.004,0.004-0.009,0.006-0.013
	c0.004,0,0.01,0,0.012-0.004v-0.003h0.015c0-0.004,0.002-0.009,0.005-0.014h0.011c0.003-0.003,0.006-0.007,0.007-0.011h0.013
	c0.003-0.005,0.005-0.01,0.007-0.014h0.011c0.003-0.004,0.004-0.008,0.008-0.012h0.012c0.001-0.005,0.004-0.008,0.007-0.013
	c0.006-0.001,0.012-0.003,0.017-0.005c0.006-0.009,0.011-0.014,0.014-0.02h0.013c0.004-0.008,0.007-0.014,0.012-0.02h0.013
	c0.01-0.014,0.021-0.026,0.031-0.038c0.008-0.002,0.017-0.004,0.025-0.007c0.016-0.02,0.034-0.044,0.05-0.062
	c0.014-0.012,0.025-0.021,0.039-0.037v-0.009c0.017-0.017,0.037-0.033,0.056-0.051v-0.006c0.004-0.001,0.008-0.005,0.014-0.01
	v-0.008c0.021-0.021,0.045-0.042,0.068-0.068v-0.008c0.021-0.021,0.045-0.041,0.068-0.068v-0.009c0.025-0.02,0.047-0.04,0.07-0.066
	v-0.008c0.006-0.002,0.008-0.006,0.012-0.007v-0.006c0.02-0.018,0.037-0.034,0.059-0.056v-0.008c0.02-0.018,0.041-0.038,0.061-0.056
	c0.002-0.007,0.004-0.015,0.006-0.021c0.006-0.001,0.01-0.004,0.014-0.006c0.008-0.01,0.018-0.021,0.025-0.032
	c0.01-0.007,0.02-0.016,0.031-0.025v-0.011c0.023-0.021,0.047-0.042,0.07-0.063v-0.014c0.004-0.003,0.006-0.004,0.012-0.006v-0.007
	c0.02-0.017,0.039-0.034,0.057-0.051v-0.014c0.023-0.019,0.049-0.04,0.07-0.062v-0.014c0.004-0.001,0.008-0.004,0.012-0.008v-0.004
	c0.02-0.017,0.039-0.034,0.057-0.05v-0.014c0.023-0.021,0.047-0.041,0.07-0.062v-0.015c0.023-0.021,0.047-0.041,0.068-0.062v-0.012
	c0.023-0.023,0.047-0.043,0.07-0.063v-0.013c0.021-0.021,0.047-0.044,0.068-0.063v-0.013c0.021-0.021,0.045-0.04,0.063-0.063v-0.007
	h0.008c0.004-0.007,0.01-0.013,0.014-0.021c0.016-0.015,0.031-0.026,0.049-0.047v-0.009c0.023-0.023,0.045-0.042,0.072-0.063v-0.013
	c0.021-0.021,0.045-0.04,0.066-0.063v-0.011c0.023-0.022,0.049-0.041,0.07-0.066v-0.011c0.023-0.021,0.045-0.041,0.07-0.063v-0.012
	c0.004-0.001,0.006-0.004,0.012-0.006v-0.007c0.02-0.019,0.037-0.033,0.057-0.056v-0.008c0.021-0.021,0.047-0.043,0.07-0.063v-0.014
	c0.023-0.021,0.045-0.041,0.068-0.063v-0.012c0.023-0.022,0.047-0.042,0.07-0.063v-0.014c0.002-0.003,0.008-0.006,0.012-0.009
	v-0.005c0.02-0.016,0.039-0.033,0.057-0.05v-0.014c0.023-0.021,0.047-0.041,0.07-0.062v-0.013c0.021-0.021,0.045-0.042,0.068-0.063
	v-0.013c0.023-0.021,0.047-0.041,0.068-0.063v-0.013c0.004-0.002,0.008-0.004,0.014-0.009v-0.003
	c0.018-0.017,0.037-0.035,0.057-0.053v-0.01c0.023-0.023,0.045-0.042,0.07-0.063v-0.014c0.021-0.021,0.047-0.042,0.068-0.062v-0.015
	c0.004-0.001,0.008-0.004,0.014-0.005v-0.008c0.018-0.017,0.037-0.033,0.057-0.051v-0.012c0.023-0.021,0.045-0.042,0.068-0.063
	v-0.012c0.006-0.003,0.008-0.004,0.014-0.008v-0.003c0.018-0.018,0.037-0.034,0.057-0.052v-0.014
	c0.021-0.021,0.045-0.041,0.068-0.063v-0.012c0.004-0.003,0.01-0.004,0.014-0.008v-0.007c0.02-0.016,0.039-0.034,0.055-0.05v-0.013
	c0.023-0.021,0.049-0.042,0.07-0.063v-0.013c0.023-0.021,0.045-0.041,0.068-0.063v-0.012c0.025-0.021,0.047-0.042,0.072-0.063
	v-0.014c0.021-0.021,0.045-0.042,0.068-0.063v-0.013c0.023-0.021,0.045-0.042,0.068-0.063v-0.013
	c0.006-0.003,0.01-0.004,0.014-0.006v-0.007c0.018-0.017,0.037-0.036,0.057-0.051v-0.012c0.023-0.022,0.045-0.044,0.068-0.064
	v-0.012c0.023-0.022,0.047-0.043,0.07-0.063v-0.012c0.021-0.021,0.047-0.042,0.068-0.063v-0.013c0.004-0.001,0.01-0.004,0.014-0.008
	v-0.005c0.018-0.017,0.037-0.034,0.057-0.051v-0.013c0.023-0.021,0.047-0.043,0.07-0.064v-0.01c0.021-0.021,0.045-0.041,0.07-0.064
	V99.54c0.021-0.021,0.045-0.04,0.066-0.063v-0.012c0.004-0.001,0.01-0.005,0.016-0.006v-0.007c0.018-0.017,0.035-0.034,0.055-0.052
	V99.39c0.023-0.021,0.047-0.042,0.07-0.063v-0.013c0.021-0.021,0.045-0.042,0.068-0.063v-0.011c0.004-0.004,0.008-0.006,0.012-0.009
	v-0.005c0.02-0.019,0.039-0.035,0.059-0.053v-0.012c0.023-0.021,0.045-0.042,0.066-0.063v-0.014c0.006-0.001,0.01-0.004,0.016-0.005
	v-0.008c0.018-0.016,0.037-0.032,0.055-0.05V99.01c0.021-0.017,0.043-0.037,0.066-0.055V98.94h0.004
	c0.004-0.005,0.008-0.013,0.012-0.019c0.018-0.015,0.035-0.029,0.053-0.042v-0.016c0.021-0.021,0.045-0.041,0.068-0.063v-0.011
	c0.021-0.021,0.047-0.042,0.068-0.063v-0.012c0.02-0.019,0.039-0.033,0.057-0.052v-0.007c0.006-0.001,0.01-0.004,0.014-0.005v-0.014
	c0.023-0.021,0.045-0.041,0.068-0.063v-0.012c0.023-0.021,0.049-0.042,0.072-0.064v-0.013c0.021-0.021,0.043-0.04,0.066-0.063
	v-0.013c0.004-0.001,0.01-0.003,0.014-0.005v-0.007c0.02-0.018,0.037-0.033,0.057-0.052v-0.011c0.023-0.021,0.047-0.042,0.07-0.063
	v-0.013c0.023-0.021,0.045-0.041,0.068-0.063v-0.014c0.021-0.02,0.047-0.041,0.068-0.063V98.11c0.025-0.021,0.049-0.042,0.07-0.064
	v-0.011c0.004-0.003,0.008-0.004,0.012-0.008v-0.007c0.02-0.017,0.039-0.033,0.057-0.05v-0.014c0.023-0.021,0.047-0.041,0.072-0.062
	v-0.013c0.021-0.021,0.045-0.041,0.066-0.062v-0.015c0.025-0.021,0.049-0.042,0.07-0.063v-0.013c0.004-0.003,0.01-0.004,0.014-0.007
	v-0.006c0.02-0.017,0.037-0.035,0.057-0.05v-0.011c0.023-0.022,0.045-0.043,0.068-0.065v-0.011c0.025-0.023,0.047-0.043,0.07-0.063
	v-0.012c0.004-0.004,0.008-0.008,0.012-0.01v-0.006c0.02-0.015,0.039-0.034,0.059-0.051v-0.011c0.021-0.022,0.045-0.042,0.066-0.063
	v-0.013c0.006-0.002,0.008-0.004,0.014-0.006v-0.008c0.02-0.017,0.039-0.032,0.057-0.054v-0.008c0.025-0.022,0.047-0.043,0.07-0.064
	v-0.011c0.004-0.003,0.008-0.004,0.012-0.007V97.19c0.021-0.02,0.037-0.034,0.059-0.052v-0.013c0.021-0.02,0.043-0.042,0.068-0.066
	v-0.01c0.004-0.001,0.01-0.003,0.012-0.005v-0.006c0.02-0.018,0.039-0.035,0.057-0.057v-0.007c0.023-0.021,0.047-0.042,0.07-0.067
	v-0.009c0.023-0.021,0.045-0.041,0.07-0.063v-0.014c0.023-0.021,0.045-0.041,0.068-0.066v-0.008c0.021-0.02,0.047-0.043,0.068-0.066
	v-0.011c0.006-0.001,0.012-0.004,0.014-0.005V96.66c0.02-0.018,0.039-0.034,0.057-0.051v-0.014c0.023-0.021,0.047-0.042,0.07-0.066
	v-0.009c0.021-0.02,0.045-0.042,0.066-0.066v-0.009c0.023-0.021,0.049-0.042,0.07-0.068v-0.01c0.006-0.001,0.01-0.002,0.016-0.005
	v-0.007c0.018-0.017,0.035-0.033,0.055-0.054v-0.008c0.023-0.021,0.045-0.043,0.068-0.063v-0.013
	c0.025-0.021,0.049-0.042,0.07-0.063v-0.013c0.004-0.003,0.008-0.004,0.012-0.006v-0.008c0.02-0.016,0.039-0.034,0.059-0.05v-0.012
	c0.023-0.021,0.045-0.042,0.068-0.064V95.99c0.023-0.021,0.049-0.042,0.07-0.067v-0.009c0.006-0.001,0.008-0.004,0.012-0.005v-0.008
	c0.02-0.017,0.039-0.032,0.057-0.05V95.84c0.021-0.021,0.041-0.038,0.063-0.063v-0.007h0.008c0.004-0.007,0.008-0.012,0.014-0.018
	c0.016-0.016,0.033-0.031,0.049-0.047v-0.012c0.025-0.021,0.047-0.042,0.07-0.066v-0.01c0.023-0.02,0.047-0.041,0.068-0.066v-0.009
	c0.02-0.017,0.037-0.033,0.057-0.05v-0.005c0.004-0.003,0.01-0.007,0.014-0.009v-0.012c0.021-0.021,0.047-0.042,0.068-0.065v-0.011
	c0.023-0.02,0.045-0.041,0.07-0.065v-0.012c0.023-0.019,0.045-0.042,0.068-0.066V95.24c0.006-0.002,0.008-0.006,0.014-0.007v-0.007
	c0.018-0.017,0.037-0.034,0.057-0.054v-0.009c0.021-0.021,0.045-0.042,0.07-0.064v-0.011c0.023-0.021,0.045-0.043,0.068-0.066v-0.01
	c0.004-0.002,0.008-0.006,0.014-0.01v-0.002c0.016-0.019,0.037-0.033,0.057-0.05v-0.013c0.021-0.023,0.045-0.043,0.068-0.065v-0.012
	c0.023-0.021,0.047-0.042,0.07-0.063v-0.013c0.002-0.001,0.008-0.005,0.012-0.008v-0.006c0.018-0.017,0.039-0.033,0.055-0.05V94.71
	c0.025-0.021,0.049-0.042,0.07-0.064v-0.011c0.006-0.003,0.008-0.004,0.014-0.008v-0.004c0.02-0.02,0.037-0.034,0.057-0.053v-0.012
	c0.023-0.021,0.045-0.042,0.068-0.063v-0.013c0.006-0.001,0.01-0.004,0.014-0.005v-0.007c0.02-0.017,0.037-0.033,0.057-0.051v-0.013
	c0.023-0.021,0.045-0.041,0.07-0.063v-0.011c0.023-0.021,0.045-0.042,0.068-0.063v-0.014c0.023-0.021,0.047-0.042,0.07-0.063v-0.014
	c0.021-0.02,0.045-0.041,0.07-0.063v-0.013c0.004-0.001,0.006-0.002,0.012-0.006v-0.005c0.02-0.019,0.037-0.033,0.055-0.051v-0.014
	c0.025-0.021,0.049-0.041,0.07-0.063v-0.014c0.004-0.001,0.008-0.004,0.014-0.005V93.94c0.02-0.016,0.035-0.033,0.057-0.048v-0.014
	c0.023-0.021,0.047-0.042,0.07-0.063v-0.013c0.004-0.001,0.008-0.004,0.012-0.008V93.79c0.018-0.016,0.037-0.033,0.057-0.05v-0.013
	c0.023-0.021,0.045-0.041,0.068-0.063v-0.014c0.006-0.001,0.01-0.003,0.014-0.006v-0.007c0.018-0.017,0.037-0.032,0.057-0.051
	v-0.011c0.023-0.021,0.045-0.042,0.068-0.064v-0.011c0.025-0.023,0.047-0.044,0.07-0.065v-0.011l0.07-0.063V93.35
	c0.02-0.019,0.041-0.038,0.063-0.056c0.002-0.008,0.004-0.014,0.004-0.021c0.004-0.001,0.01-0.004,0.016-0.005
	c0.006-0.012,0.018-0.021,0.025-0.031c0.008-0.009,0.02-0.017,0.031-0.027v-0.012c0.021-0.021,0.045-0.042,0.068-0.063v-0.014
	c0.004,0,0.008-0.002,0.014-0.004V93.11c0.02-0.017,0.035-0.034,0.055-0.051v-0.012c0.025-0.022,0.047-0.042,0.07-0.063v-0.013
	c0.023-0.022,0.047-0.042,0.068-0.063v-0.013c0.023-0.021,0.047-0.042,0.07-0.063v-0.013c0.023-0.02,0.045-0.04,0.07-0.063v-0.013
	c0.004-0.002,0.008-0.004,0.012-0.006v-0.006c0.016-0.014,0.033-0.029,0.051-0.044v-0.013c0.023-0.022,0.047-0.042,0.07-0.063V92.6
	c0.021-0.021,0.045-0.043,0.068-0.063v-0.013c0.023-0.021,0.047-0.042,0.07-0.063v-0.011c0.02-0.019,0.037-0.035,0.057-0.053v-0.006
	c0.004-0.002,0.008-0.004,0.012-0.006v-0.012c0.025-0.021,0.047-0.043,0.068-0.063v-0.013c0.021-0.017,0.039-0.033,0.059-0.053
	v-0.005c0.004-0.001,0.008-0.005,0.012-0.006v-0.013c0.023-0.021,0.045-0.041,0.07-0.063v-0.014c0.021-0.02,0.047-0.043,0.07-0.063
	V92.07c0.021-0.021,0.043-0.043,0.066-0.063v-0.013c0.004-0.003,0.012-0.006,0.014-0.007v-0.007c0.02-0.016,0.039-0.034,0.057-0.051
	V91.92c0.023-0.021,0.047-0.043,0.07-0.066v-0.01c0.023-0.021,0.045-0.043,0.068-0.064v-0.012c0.004-0.002,0.008-0.006,0.014-0.006
	v-0.008c0.02-0.017,0.037-0.033,0.057-0.051v-0.012c0.021-0.02,0.047-0.041,0.07-0.064v-0.012c0.021-0.02,0.045-0.041,0.068-0.063
	v-0.012c0.004-0.004,0.008-0.006,0.012-0.006v-0.008c0.02-0.017,0.037-0.031,0.059-0.051v-0.013c0.021-0.02,0.045-0.04,0.066-0.062
	v-0.014c0.023-0.02,0.045-0.037,0.064-0.057c0.002-0.006,0.002-0.014,0.006-0.02c0.004-0.002,0.01-0.004,0.014-0.005
	c0.01-0.011,0.016-0.021,0.023-0.032c0.012-0.009,0.021-0.017,0.033-0.024v-0.014c0.023-0.02,0.045-0.041,0.07-0.063v-0.012
	c0.004-0.002,0.006-0.004,0.01-0.007V91.15c0.021-0.018,0.039-0.035,0.059-0.052v-0.013c0.023-0.021,0.045-0.041,0.066-0.062v-0.014
	c0.027-0.021,0.049-0.043,0.07-0.063v-0.013c0.023-0.021,0.047-0.041,0.072-0.063v-0.013c0.021-0.02,0.041-0.038,0.063-0.057
	c0.002-0.006,0.006-0.012,0.006-0.018c0.004-0.005,0.008-0.006,0.014-0.008c0.008-0.012,0.016-0.021,0.025-0.032
	c0.008-0.007,0.02-0.016,0.031-0.029v-0.009c0.021-0.021,0.047-0.041,0.068-0.066v-0.006c0.004-0.004,0.01-0.007,0.012-0.008V90.62
	c0.02-0.017,0.041-0.034,0.059-0.056v-0.008c0.023-0.021,0.045-0.043,0.068-0.062V90.48c0.006-0.002,0.01-0.004,0.012-0.006v-0.007
	c0.02-0.016,0.039-0.034,0.059-0.05v-0.012c0.021-0.021,0.045-0.042,0.068-0.068V90.33c0.021-0.022,0.047-0.043,0.068-0.068v-0.008
	c0.025-0.021,0.049-0.042,0.07-0.066v-0.009c0.023-0.021,0.047-0.042,0.07-0.067v-0.01c0.004-0.001,0.008-0.002,0.012-0.005V90.09
	c0.021-0.017,0.039-0.034,0.059-0.055v-0.009c0.021-0.021,0.045-0.042,0.066-0.067V89.95c0.023-0.02,0.049-0.041,0.07-0.067v-0.007
	c0.023-0.021,0.047-0.043,0.07-0.068V89.8c0.021-0.019,0.041-0.038,0.064-0.056c0.002-0.008,0.004-0.013,0.004-0.019
	c0.004-0.002,0.008-0.004,0.016-0.007c0.006-0.01,0.018-0.022,0.025-0.033c0.008-0.007,0.018-0.015,0.029-0.023v-0.013
	c0.023-0.021,0.047-0.042,0.07-0.067v-0.009c0.004-0.001,0.008-0.002,0.012-0.008V89.56c0.018-0.014,0.033-0.029,0.051-0.043v-0.012
	c0.023-0.022,0.045-0.042,0.068-0.063v-0.014c0.023-0.02,0.047-0.041,0.07-0.066v-0.008c0.018-0.017,0.037-0.034,0.057-0.051v-0.006
	c0.006-0.002,0.008-0.004,0.012-0.013v-0.007c0.025-0.021,0.047-0.042,0.068-0.068v-0.008c0.021-0.017,0.041-0.032,0.059-0.05
	v-0.006c0.004-0.002,0.008-0.004,0.014-0.011v-0.008c0.021-0.021,0.045-0.042,0.068-0.067V89.05
	c0.018-0.017,0.039-0.034,0.057-0.051v-0.007c0.004-0.001,0.008-0.002,0.012-0.01v-0.009c0.023-0.021,0.049-0.041,0.07-0.067v-0.007
	c0.023-0.021,0.045-0.042,0.068-0.068v-0.008c0.025-0.022,0.047-0.043,0.07-0.064v-0.012c0.004-0.001,0.01-0.004,0.014-0.007v-0.005
	c0.018-0.017,0.037-0.034,0.057-0.055v-0.009c0.021-0.02,0.045-0.041,0.068-0.066v-0.008c0.021-0.023,0.045-0.044,0.068-0.064V88.52
	c0.004-0.002,0.01-0.004,0.014-0.005v-0.007c0.02-0.017,0.039-0.033,0.057-0.054v-0.009c0.023-0.021,0.047-0.042,0.07-0.063v-0.013
	c0.021-0.02,0.047-0.042,0.07-0.063v-0.011c0.021-0.021,0.045-0.042,0.066-0.063v-0.013c0.006-0.003,0.01-0.005,0.016-0.006v-0.007
	l0.055-0.051v-0.011c0.023-0.022,0.047-0.043,0.07-0.068v-0.008c0.023-0.021,0.047-0.042,0.068-0.063V87.99
	c0.023-0.021,0.049-0.042,0.07-0.063v-0.013c0.023-0.02,0.047-0.042,0.07-0.063v-0.011c0.004-0.002,0.006-0.004,0.012-0.01v-0.004
	c0.02-0.017,0.037-0.032,0.057-0.049v-0.014c0.021-0.02,0.045-0.041,0.068-0.062v-0.015c0.025-0.02,0.047-0.041,0.068-0.062v-0.013
	c0.025-0.021,0.049-0.041,0.07-0.062v-0.013c0.021-0.019,0.041-0.039,0.063-0.057c0.004-0.006,0.008-0.012,0.008-0.019
	c0.004-0.003,0.01-0.004,0.012-0.006c0.01-0.011,0.018-0.022,0.025-0.032c0.012-0.009,0.021-0.017,0.033-0.026v-0.012
	c0.021-0.02,0.045-0.042,0.07-0.062v-0.014c0.002-0.001,0.008-0.004,0.01-0.007v-0.006c0.02-0.017,0.041-0.032,0.057-0.049v-0.015
	c0.025-0.02,0.049-0.041,0.07-0.063v-0.012c0.004-0.002,0.01-0.004,0.012-0.007v-0.01c0.02-0.017,0.039-0.033,0.061-0.05v-0.012
	c0.021-0.021,0.043-0.043,0.066-0.063v-0.014c0.004-0.001,0.008-0.002,0.014-0.006V86.99c0.016-0.018,0.037-0.034,0.057-0.051
	v-0.013c0.021-0.02,0.045-0.041,0.066-0.063v-0.012c0.025-0.021,0.049-0.042,0.072-0.063v-0.012c0.023-0.022,0.045-0.043,0.07-0.064
	V86.7c0.021-0.021,0.045-0.042,0.068-0.063v-0.013c0.006-0.002,0.008-0.004,0.012-0.007v-0.006c0.02-0.017,0.037-0.034,0.057-0.05
	v-0.013c0.006-0.001,0.008-0.004,0.014-0.005c0.014-0.016,0.045-0.043,0.049-0.064C105.648,86.474,105.449,86.47,105.25,86.467
	 M78.892,86.529c0.01,0.013,0.021,0.025,0.031,0.038c0.039,0.039,0.076,0.075,0.12,0.108c0.038,0.04,0.075,0.079,0.113,0.118
	c0.009,0.008,0.017,0.013,0.024,0.019v0.007h0.014c0.01,0.013,0.021,0.025,0.032,0.038c0.035,0.037,0.07,0.07,0.113,0.102
	c0.01,0.011,0.021,0.023,0.031,0.036c0.038,0.04,0.076,0.077,0.119,0.108c0.028,0.03,0.055,0.058,0.083,0.087
	c0.048,0.044,0.096,0.089,0.145,0.134c0.019,0.02,0.037,0.041,0.057,0.062c0.043,0.032,0.083,0.069,0.121,0.107
	c0.01,0.013,0.021,0.024,0.031,0.037h0.013c0.003,0.007,0.008,0.014,0.012,0.02c0.017,0.016,0.035,0.03,0.051,0.044
	c0.025,0.028,0.051,0.055,0.075,0.082c0.042,0.031,0.078,0.066,0.113,0.102c0.012,0.015,0.021,0.025,0.032,0.038h0.012
	c0.007,0.01,0.014,0.018,0.02,0.025c0.017,0.016,0.034,0.03,0.05,0.044c0.023,0.025,0.046,0.052,0.07,0.076
	c0.044,0.033,0.083,0.071,0.12,0.107c0.01,0.013,0.021,0.027,0.031,0.038c0.042,0.031,0.077,0.064,0.113,0.102
	c0.011,0.013,0.021,0.025,0.031,0.038h0.014c0.043,0.046,0.087,0.093,0.132,0.138c0.007,0.001,0.013,0.004,0.02,0.007
	c0.01,0.013,0.021,0.024,0.032,0.036c0.037,0.04,0.075,0.077,0.119,0.109c0.012,0.013,0.022,0.025,0.032,0.037
	c0.037,0.037,0.071,0.072,0.114,0.102c0.046,0.048,0.093,0.096,0.14,0.146c0.043,0.031,0.082,0.068,0.119,0.106
	c0.011,0.013,0.021,0.025,0.031,0.038c0.044,0.03,0.078,0.065,0.114,0.102c0.011,0.012,0.021,0.024,0.032,0.038
	c0.044,0.031,0.081,0.067,0.12,0.107c0.01,0.012,0.021,0.023,0.031,0.036h0.012c0.004,0.007,0.009,0.013,0.013,0.02
	c0.017,0.013,0.033,0.029,0.05,0.044c0.025,0.027,0.05,0.056,0.076,0.083h0.013c0.043,0.045,0.088,0.092,0.132,0.138
	c0.043,0.031,0.082,0.069,0.12,0.108c0.01,0.012,0.021,0.023,0.031,0.037h0.013c0.045,0.046,0.089,0.092,0.133,0.139
	c0.006,0.001,0.013,0.004,0.019,0.007c0.01,0.011,0.021,0.025,0.031,0.038c0.035,0.035,0.072,0.07,0.113,0.1
	c0.011,0.013,0.022,0.025,0.032,0.04c0.038,0.038,0.076,0.076,0.12,0.107c0.047,0.048,0.092,0.095,0.139,0.144
	c0.042,0.031,0.078,0.065,0.114,0.103c0.011,0.013,0.021,0.024,0.032,0.037c0.043,0.033,0.082,0.069,0.12,0.109
	c0.009,0.011,0.021,0.023,0.032,0.036h0.013v0.006c0.008,0.008,0.017,0.014,0.025,0.02c0.038,0.041,0.075,0.08,0.113,0.12
	c0.042,0.031,0.079,0.064,0.113,0.101c0.012,0.012,0.021,0.025,0.032,0.039h0.012c0.007,0.007,0.013,0.017,0.019,0.024
	c0.017,0.015,0.034,0.03,0.051,0.044c0.023,0.025,0.047,0.051,0.07,0.076c0.044,0.031,0.082,0.069,0.12,0.105
	c0.009,0.016,0.021,0.027,0.03,0.04h0.014c0.004,0.007,0.008,0.011,0.013,0.019c0.017,0.014,0.033,0.029,0.05,0.043
	c0.022,0.026,0.046,0.051,0.069,0.076c0.044,0.033,0.081,0.069,0.12,0.107c0.01,0.013,0.021,0.025,0.032,0.04
	c0.044,0.03,0.082,0.067,0.12,0.104c0.01,0.014,0.021,0.026,0.031,0.04c0.042,0.03,0.077,0.063,0.113,0.101
	c0.011,0.012,0.021,0.023,0.032,0.039h0.012c0.045,0.043,0.088,0.09,0.132,0.137c0.007,0.002,0.013,0.006,0.02,0.007
	c0.01,0.013,0.021,0.026,0.031,0.036c0.039,0.041,0.075,0.076,0.119,0.109c0.011,0.013,0.022,0.025,0.032,0.037
	c0.036,0.037,0.071,0.071,0.114,0.102c0.046,0.049,0.092,0.098,0.138,0.146h0.013c0.043,0.045,0.089,0.091,0.132,0.137
	c0.007,0.004,0.013,0.006,0.019,0.008c0.01,0.012,0.021,0.025,0.031,0.039c0.036,0.035,0.071,0.07,0.114,0.101
	c0.01,0.011,0.021,0.025,0.031,0.036c0.038,0.039,0.075,0.076,0.119,0.107c0.047,0.048,0.093,0.099,0.139,0.146
	c0.042,0.029,0.077,0.064,0.114,0.1c0.01,0.012,0.021,0.027,0.032,0.04h0.012c0.044,0.047,0.088,0.092,0.133,0.139
	c0.006,0.001,0.012,0.004,0.019,0.005c0.01,0.013,0.02,0.027,0.031,0.038c0.038,0.038,0.075,0.076,0.119,0.107
	c0.011,0.014,0.022,0.024,0.032,0.038c0.037,0.036,0.072,0.069,0.114,0.101c0.01,0.013,0.02,0.026,0.031,0.038
	c0.039,0.04,0.076,0.076,0.12,0.109c0.027,0.028,0.055,0.057,0.082,0.087c0.05,0.044,0.098,0.087,0.146,0.133
	c0.02,0.021,0.037,0.043,0.057,0.063c0.045,0.031,0.082,0.069,0.119,0.106c0.01,0.012,0.022,0.025,0.033,0.038h0.013
	c0.004,0.006,0.007,0.012,0.013,0.019c0.017,0.016,0.034,0.03,0.051,0.045c0.025,0.027,0.051,0.056,0.075,0.082
	c0.042,0.029,0.078,0.063,0.114,0.101c0.012,0.015,0.02,0.026,0.031,0.037h0.014c0.006,0.008,0.011,0.018,0.018,0.025
	c0.016,0.016,0.033,0.03,0.05,0.045c0.022,0.025,0.048,0.05,0.07,0.076c0.044,0.032,0.083,0.068,0.119,0.107
	c0.012,0.013,0.023,0.023,0.033,0.038c0.042,0.028,0.077,0.063,0.114,0.1c0.009,0.016,0.02,0.026,0.031,0.039H87.4
	c0.043,0.046,0.089,0.092,0.131,0.138c0.006,0.003,0.014,0.006,0.02,0.007c0.012,0.011,0.021,0.026,0.031,0.039
	c0.039,0.039,0.076,0.075,0.121,0.106c0.011,0.012,0.02,0.024,0.031,0.038c0.037,0.036,0.072,0.069,0.113,0.102
	c0.012,0.013,0.022,0.025,0.033,0.036c0.038,0.039,0.075,0.076,0.12,0.109c0.046,0.047,0.093,0.096,0.138,0.146
	c0.042,0.028,0.079,0.063,0.114,0.101c0.009,0.012,0.021,0.025,0.033,0.036h0.011c0.002,0.006,0.004,0.009,0.006,0.014
	c0.013,0.012,0.026,0.021,0.038,0.032c0.031,0.033,0.063,0.067,0.095,0.101h0.013c0.027,0.03,0.055,0.058,0.082,0.088
	c0.015,0.014,0.03,0.025,0.045,0.038c0.003,0.007,0.009,0.013,0.011,0.019h0.013c0.041,0.044,0.081,0.086,0.12,0.127h0.005
	c0.002,0.005,0.005,0.008,0.007,0.012h0.013c0.012,0.015,0.021,0.025,0.031,0.038c0.04,0.038,0.077,0.075,0.121,0.108
	c0.01,0.012,0.02,0.026,0.031,0.037c0.038,0.04,0.076,0.076,0.121,0.107c0.041,0.045,0.082,0.089,0.124,0.134
	c0.006,0.001,0.013,0.003,0.02,0.005c0.022,0.025,0.047,0.053,0.07,0.077c0.016,0.014,0.031,0.029,0.049,0.043
	c0.007,0.009,0.013,0.018,0.019,0.025h0.014c0.022,0.025,0.045,0.051,0.069,0.075c0.028,0.028,0.058,0.056,0.087,0.083h0.013v-0.008
	c0.02-0.015,0.036-0.031,0.056-0.048v-0.016c0.021-0.018,0.042-0.036,0.063-0.055v-0.012c0.004-0.004,0.008-0.005,0.013-0.006
	v-0.009l0.05-0.044v-0.012h0.006c0.006-0.01,0.013-0.019,0.02-0.025c0.01-0.009,0.02-0.017,0.031-0.026v-0.012
	c0.021-0.019,0.042-0.037,0.063-0.057v-0.014c0.021-0.018,0.041-0.038,0.062-0.056v-0.011c0.021-0.019,0.039-0.034,0.058-0.052
	v-0.012c0.02-0.021,0.041-0.04,0.063-0.059v-0.012c0.005-0.003,0.008-0.005,0.014-0.007v-0.005c0.017-0.015,0.034-0.03,0.051-0.043
	v-0.016c0.017-0.016,0.037-0.032,0.056-0.049v-0.013c0.02-0.02,0.042-0.039,0.062-0.059v-0.01c0.006-0.002,0.009-0.004,0.013-0.008
	V95.95c0.018-0.017,0.035-0.029,0.049-0.044v-0.014c0.02-0.017,0.04-0.033,0.059-0.05v-0.016c0.02-0.021,0.041-0.038,0.062-0.059
	v-0.01c0.021-0.02,0.042-0.039,0.063-0.058v-0.013c0.019-0.016,0.039-0.033,0.056-0.05c0.002-0.006,0.005-0.014,0.006-0.021
	c0.019-0.016,0.039-0.034,0.058-0.049v-0.013c0.021-0.021,0.041-0.039,0.063-0.057v-0.014c0.018-0.017,0.037-0.033,0.057-0.056
	v-0.007c0.021-0.018,0.041-0.036,0.063-0.056v-0.014c0.004-0.003,0.01-0.004,0.012-0.007v-0.005c0.018-0.016,0.035-0.03,0.053-0.045
	v-0.013c0.018-0.017,0.039-0.034,0.055-0.055v-0.008c0.023-0.02,0.043-0.04,0.064-0.057v-0.015c0.004-0.001,0.008-0.004,0.014-0.005
	v-0.006c0.018-0.018,0.031-0.03,0.049-0.045v-0.014c0.02-0.017,0.037-0.03,0.057-0.048c0.004-0.008,0.006-0.015,0.008-0.02
	c0.018-0.02,0.037-0.034,0.055-0.056v-0.008c0.021-0.019,0.045-0.039,0.064-0.057V94.88c0.02-0.015,0.037-0.032,0.057-0.049v-0.013
	c0.021-0.021,0.043-0.038,0.063-0.062v-0.008c0.021-0.019,0.041-0.038,0.064-0.057v-0.012c0.02-0.018,0.039-0.033,0.057-0.05v-0.016
	c0.021-0.017,0.041-0.036,0.063-0.058v-0.009c0.021-0.021,0.043-0.038,0.063-0.059v-0.02c0.02-0.017,0.037-0.033,0.059-0.051v-0.013
	c0.02-0.02,0.041-0.037,0.063-0.062v-0.007c0.021-0.02,0.041-0.04,0.063-0.058v-0.011c0.021-0.019,0.037-0.035,0.057-0.052v-0.011
	c0.004-0.003,0.01-0.006,0.014-0.01v-0.004c0.016-0.016,0.033-0.029,0.049-0.049v-0.009c0.023-0.02,0.043-0.038,0.064-0.062v-0.007
	c0.02-0.017,0.037-0.034,0.057-0.053v-0.011c0.02-0.021,0.041-0.039,0.063-0.057v-0.014c0.02-0.018,0.041-0.037,0.063-0.061v-0.008
	c0.02-0.018,0.037-0.035,0.057-0.052v-0.012c0.021-0.02,0.043-0.038,0.064-0.058v-0.012c0.004-0.002,0.008-0.003,0.012-0.006v-0.005
	c0.018-0.017,0.033-0.03,0.051-0.047c0.072-0.101,0.166-0.176,0.24-0.275c0.021-0.02,0.041-0.038,0.063-0.058v-0.014
	c0.021-0.018,0.043-0.038,0.063-0.06v-0.009c0.02-0.018,0.039-0.033,0.057-0.051c0.002-0.006,0.006-0.013,0.006-0.019
	c0.02-0.017,0.039-0.033,0.059-0.05v-0.014c0.02-0.018,0.041-0.036,0.063-0.061V93.06c0.02-0.016,0.039-0.035,0.057-0.051
	c0.002-0.007,0.004-0.013,0.006-0.019c0.02-0.019,0.039-0.034,0.057-0.053v-0.011c0.021-0.02,0.043-0.038,0.064-0.062v-0.008
	c0.02-0.018,0.037-0.035,0.055-0.053c0.004-0.005,0.008-0.012,0.008-0.017c0.02-0.018,0.039-0.035,0.057-0.052v-0.012
	c0.021-0.02,0.041-0.037,0.064-0.056v-0.015c0.02-0.017,0.035-0.033,0.055-0.049v-0.014c0.02-0.019,0.043-0.039,0.063-0.056v-0.015
	c0.021-0.018,0.043-0.037,0.063-0.055v-0.014c0.02-0.017,0.039-0.033,0.059-0.051v-0.012c0.018-0.018,0.039-0.033,0.057-0.051
	c0.002-0.005,0.004-0.012,0.004-0.018c0.021-0.021,0.045-0.039,0.064-0.059v-0.012c0.016-0.016,0.033-0.029,0.051-0.044
	c0.002-0.007,0.004-0.013,0.008-0.019c0.02-0.02,0.043-0.038,0.061-0.057v-0.014c0.023-0.018,0.043-0.038,0.064-0.056v-0.013
	c0.018-0.016,0.039-0.033,0.059-0.049c0-0.007,0.002-0.014,0.004-0.021c0.02-0.016,0.039-0.032,0.057-0.05V91.92
	c0.021-0.021,0.043-0.041,0.064-0.059V91.85c0.018-0.018,0.037-0.033,0.057-0.051v-0.012c0.02-0.02,0.041-0.039,0.063-0.059v-0.011
	c0.021-0.021,0.043-0.037,0.063-0.056v-0.014c0.02-0.017,0.039-0.033,0.059-0.051v-0.013c0.018-0.017,0.037-0.032,0.057-0.05
	c0.002-0.006,0.004-0.012,0.006-0.019c0.02-0.019,0.041-0.038,0.063-0.057v-0.013c0.016-0.014,0.033-0.029,0.051-0.043
	c0.002-0.006,0.004-0.014,0.006-0.021c0.021-0.02,0.041-0.038,0.064-0.057v-0.011c0.02-0.02,0.043-0.039,0.063-0.058v-0.013
	c0.02-0.016,0.039-0.033,0.057-0.05c0.002-0.007,0.004-0.013,0.006-0.02c0.02-0.016,0.039-0.032,0.057-0.051v-0.011
	c0.02-0.021,0.041-0.04,0.063-0.059v-0.014c0.02-0.018,0.039-0.032,0.057-0.055V90.98c0.021-0.02,0.043-0.039,0.063-0.057V90.91
	c0.021-0.018,0.043-0.038,0.064-0.057v-0.013c0.018-0.015,0.037-0.034,0.057-0.055v-0.009c0.021-0.018,0.041-0.037,0.063-0.061
	v-0.008c0.004-0.002,0.01-0.004,0.014-0.006c0.008-0.011,0.018-0.022,0.025-0.033c0.008-0.006,0.016-0.012,0.025-0.018
	c0.072-0.1,0.166-0.178,0.24-0.278c0.02-0.019,0.041-0.038,0.061-0.055v-0.016c0.021-0.018,0.043-0.036,0.064-0.055v-0.013
	c0.004-0.003,0.01-0.004,0.012-0.007c0.006-0.007,0.014-0.017,0.021-0.024s0.016-0.013,0.023-0.02v-0.012
	c0.021-0.019,0.043-0.038,0.063-0.062v-0.008c0.006-0.001,0.008-0.004,0.012-0.005v-0.005c0.018-0.016,0.035-0.031,0.053-0.046
	v-0.012c0.02-0.017,0.037-0.034,0.057-0.05v-0.013c0.021-0.019,0.043-0.039,0.063-0.062v-0.008c0.021-0.02,0.043-0.038,0.063-0.055
	v-0.015c0.02-0.016,0.039-0.032,0.057-0.049c0.006-0.007,0.006-0.013,0.008-0.02c0.02-0.017,0.037-0.034,0.057-0.055v-0.008
	c0.021-0.019,0.043-0.039,0.063-0.057v-0.013c0.02-0.017,0.037-0.034,0.057-0.049v-0.014c0.021-0.019,0.043-0.037,0.063-0.057
	v-0.014c0.006-0.001,0.01-0.004,0.014-0.007v-0.007c0.018-0.013,0.033-0.028,0.049-0.043v-0.012c0.02-0.017,0.039-0.034,0.057-0.051
	v-0.013c0.023-0.018,0.043-0.038,0.064-0.056v-0.013c0.02-0.02,0.043-0.038,0.063-0.06v-0.009c0.02-0.019,0.037-0.034,0.057-0.052
	v-0.011c0.021-0.02,0.043-0.039,0.064-0.058v-0.011c0.02-0.02,0.039-0.038,0.063-0.062v-0.009c0.02-0.015,0.037-0.034,0.057-0.051
	v-0.011c0.021-0.02,0.043-0.039,0.063-0.056v-0.015c0.004-0.001,0.008-0.003,0.014-0.008v-0.003c0.016-0.015,0.033-0.03,0.051-0.049
	v-0.013c0.018-0.017,0.037-0.034,0.055-0.051v-0.013c0.023-0.019,0.043-0.037,0.063-0.057v-0.012
	c0.021-0.019,0.043-0.038,0.066-0.056v-0.013c0.016-0.017,0.037-0.034,0.055-0.051v-0.013c0.021-0.017,0.043-0.038,0.064-0.056
	v-0.013c0.021-0.019,0.041-0.037,0.063-0.057v-0.012c0.02-0.017,0.037-0.034,0.059-0.051v-0.014c0.02-0.019,0.041-0.035,0.061-0.055
	v-0.013c0.021-0.019,0.043-0.038,0.064-0.058v-0.012c0.016-0.018,0.037-0.033,0.055-0.05c0.002-0.008,0.004-0.015,0.008-0.02
	c0.02-0.016,0.035-0.032,0.055-0.049v-0.014c0.025-0.019,0.043-0.037,0.066-0.057v-0.013c0.016-0.018,0.037-0.034,0.057-0.051
	c0-0.006,0.002-0.012,0.006-0.019c0.02-0.016,0.035-0.033,0.055-0.05v-0.013c0.021-0.019,0.043-0.038,0.064-0.056V87.81
	c0.018-0.017,0.037-0.033,0.057-0.051c0.002-0.005,0.004-0.013,0.006-0.018c0.02-0.018,0.037-0.035,0.057-0.051v-0.013
	c0.02-0.018,0.041-0.038,0.063-0.056v-0.013c0.02-0.016,0.037-0.033,0.057-0.049v-0.013c0.021-0.02,0.043-0.038,0.063-0.058v-0.013
	c0.023-0.018,0.045-0.036,0.066-0.054v-0.013c0.018-0.018,0.037-0.035,0.055-0.055v-0.008c0.021-0.02,0.041-0.038,0.064-0.056
	v-0.013l0.061-0.058v-0.012c0.021-0.017,0.039-0.034,0.059-0.051c0.002-0.006,0.004-0.013,0.006-0.019
	c0.018-0.017,0.039-0.034,0.057-0.051v-0.011c0.021-0.02,0.043-0.038,0.063-0.058v-0.013c0.008-0.006,0.018-0.012,0.027-0.018
	c0.004-0.01,0.012-0.017,0.018-0.025c0.004-0.002,0.008-0.005,0.014-0.011v-0.007c0.02-0.02,0.041-0.04,0.064-0.058v-0.013
	c0.02-0.018,0.039-0.038,0.061-0.056v-0.014c0.02-0.017,0.037-0.034,0.057-0.056v-0.007c0.02-0.021,0.041-0.039,0.063-0.058v-0.013
	c0.021-0.02,0.041-0.037,0.064-0.057v-0.014c0.018-0.015,0.035-0.032,0.057-0.049v-0.013c0.02-0.019,0.041-0.039,0.063-0.058v-0.011
	h0.008c0.004-0.007,0.008-0.013,0.012-0.02c0.016-0.017,0.035-0.024,0.043-0.051h-4.717c-0.008,0.024-0.025,0.036-0.039,0.051
	h-0.006v0.012c-0.004,0.003-0.008,0.005-0.012,0.007c-0.008,0.008-0.014,0.017-0.02,0.026c-0.006,0.004-0.014,0.008-0.02,0.015v0.01
	c-0.016,0.013-0.027,0.024-0.043,0.041v0.009c-0.018,0.016-0.035,0.03-0.051,0.045v0.013c-0.016,0.012-0.031,0.025-0.045,0.037
	v0.014c-0.016,0.014-0.033,0.028-0.051,0.044v0.012c-0.014,0.011-0.029,0.025-0.043,0.036v0.015
	c-0.016,0.011-0.029,0.024-0.045,0.037v0.013c-0.016,0.015-0.033,0.029-0.051,0.045v0.011c-0.016,0.013-0.027,0.027-0.045,0.038
	v0.014c-0.016,0.013-0.033,0.028-0.049,0.042v0.013c-0.016,0.015-0.031,0.027-0.043,0.042v0.008
	c-0.018,0.014-0.035,0.03-0.053,0.044c-0.084,0.117-0.193,0.211-0.277,0.329c-0.016,0.014-0.033,0.028-0.051,0.044v0.011h-0.006
	c-0.004,0.009-0.01,0.018-0.018,0.025c-0.008,0.005-0.014,0.008-0.02,0.014v0.011c-0.018,0.015-0.033,0.03-0.049,0.045v0.011
	c-0.018,0.013-0.031,0.027-0.047,0.038c-0.002,0.007-0.004,0.012-0.006,0.019c-0.016,0.014-0.029,0.026-0.045,0.038
	c-0.082,0.119-0.191,0.213-0.275,0.329c-0.016,0.016-0.033,0.029-0.051,0.043v0.015H92.66c-0.006,0.008-0.014,0.016-0.02,0.023
	c-0.006,0.006-0.014,0.01-0.02,0.013v0.013c-0.018,0.015-0.033,0.031-0.051,0.048v0.008c-0.014,0.013-0.027,0.025-0.045,0.04
	c0,0.005-0.004,0.011-0.006,0.018c-0.014,0.013-0.027,0.025-0.043,0.038c-0.084,0.117-0.191,0.21-0.279,0.329
	c-0.016,0.013-0.033,0.029-0.051,0.048v0.009c-0.004,0.004-0.012,0.008-0.018,0.012c-0.006,0.009-0.012,0.017-0.02,0.025
	c-0.002,0-0.004,0-0.006,0.004v0.008c-0.016,0.015-0.033,0.03-0.049,0.042c-0.072,0.1-0.164,0.181-0.234,0.279
	c-0.018,0.016-0.033,0.03-0.051,0.045v0.012c-0.006,0.005-0.014,0.008-0.02,0.012c-0.006,0.009-0.012,0.017-0.016,0.026
	c-0.004,0-0.006,0-0.008,0.004v0.01c-0.018,0.014-0.033,0.03-0.051,0.042c-0.072,0.101-0.162,0.18-0.232,0.279
	c-0.016,0.011-0.031,0.024-0.045,0.038V89.5c-0.018,0.016-0.035,0.031-0.051,0.044v0.014c-0.014,0.012-0.029,0.024-0.045,0.038
	v0.011c-0.018,0.016-0.033,0.029-0.051,0.045v0.011c-0.016,0.012-0.029,0.025-0.043,0.039v0.012
	c-0.016,0.014-0.035,0.03-0.051,0.044v0.012c-0.014,0.011-0.029,0.026-0.043,0.04v0.013c-0.016,0.01-0.029,0.024-0.045,0.037v0.012
	c-0.018,0.016-0.035,0.03-0.053,0.048v0.009c-0.012,0.013-0.027,0.025-0.043,0.042v0.008c-0.018,0.015-0.033,0.029-0.049,0.045
	v0.011c-0.016,0.012-0.031,0.025-0.045,0.038v0.012c-0.016,0.014-0.033,0.03-0.049,0.044v0.012
	c-0.016,0.012-0.031,0.026-0.047,0.039v0.013c-0.016,0.015-0.033,0.029-0.049,0.044v0.011c-0.016,0.014-0.029,0.025-0.047,0.039
	v0.012c-0.014,0.015-0.031,0.029-0.049,0.049v0.008c-0.016,0.013-0.029,0.026-0.043,0.039v0.013h-0.006
	c-0.008,0.008-0.014,0.016-0.02,0.025c-0.008,0.003-0.012,0.007-0.018,0.013v0.011c-0.02,0.015-0.035,0.03-0.053,0.043v0.014h-0.005
	c-0.006,0.008-0.012,0.016-0.02,0.025c-0.007,0.004-0.012,0.008-0.02,0.012v0.012c-0.017,0.016-0.033,0.03-0.05,0.045v0.013
	c-0.014,0.013-0.03,0.024-0.044,0.036c-0.003,0.009-0.004,0.014-0.006,0.021c-0.015,0.011-0.029,0.023-0.045,0.041v0.008
	c-0.015,0.014-0.028,0.026-0.043,0.039v0.012c-0.017,0.015-0.034,0.028-0.049,0.044v0.011c-0.016,0.013-0.031,0.027-0.046,0.04
	c-0.058,0.081-0.129,0.146-0.188,0.227c-0.017,0.013-0.031,0.026-0.045,0.038v0.014c-0.017,0.016-0.034,0.027-0.051,0.043v0.013
	h-0.005c-0.008,0.009-0.013,0.017-0.02,0.025c-0.006,0.004-0.011,0.009-0.019,0.015v0.011c-0.018,0.015-0.034,0.029-0.051,0.044
	v0.012H89.79c-0.007,0.01-0.013,0.018-0.019,0.025c-0.008,0.005-0.014,0.008-0.02,0.014v0.012c-0.017,0.015-0.034,0.029-0.051,0.045
	v0.012c-0.014,0.014-0.028,0.024-0.043,0.037v0.012c-0.018,0.017-0.035,0.031-0.051,0.051v0.008
	c-0.015,0.012-0.029,0.025-0.043,0.037v0.012c-0.005,0.004-0.008,0.006-0.015,0.008c-0.013,0.016-0.027,0.031-0.037,0.051h-0.013
	c-0.005-0.022-0.022-0.035-0.037-0.051c-0.004-0.002-0.008-0.004-0.011-0.008v-0.012c-0.006-0.002-0.01-0.004-0.014-0.006
	c-0.005-0.008-0.013-0.018-0.02-0.023c-0.006-0.006-0.012-0.009-0.017-0.014c-0.062-0.086-0.141-0.154-0.204-0.24
	c-0.017-0.016-0.033-0.03-0.05-0.049v-0.008c-0.017-0.014-0.034-0.03-0.05-0.043V91.17c-0.017-0.015-0.033-0.029-0.049-0.044v-0.011
	c-0.018-0.017-0.036-0.029-0.052-0.05v-0.009c-0.017-0.016-0.034-0.029-0.05-0.049V91c-0.016-0.014-0.033-0.029-0.05-0.045v-0.013
	c-0.02-0.017-0.038-0.032-0.058-0.05c-0.061-0.087-0.139-0.154-0.201-0.24c-0.018-0.016-0.035-0.029-0.051-0.043v-0.014
	c-0.017-0.014-0.034-0.029-0.051-0.043v-0.012h-0.006c-0.005-0.009-0.012-0.018-0.02-0.025c-0.007-0.006-0.017-0.013-0.025-0.018
	v-0.013c-0.017-0.015-0.032-0.03-0.049-0.05v-0.008c-0.019-0.014-0.033-0.028-0.051-0.042V90.37
	c-0.017-0.014-0.034-0.027-0.051-0.043v-0.011c-0.017-0.016-0.035-0.029-0.051-0.045v-0.013c-0.015-0.014-0.032-0.029-0.049-0.049
	V90.2c-0.02-0.016-0.04-0.033-0.058-0.049c-0.062-0.086-0.139-0.155-0.201-0.24c-0.017-0.015-0.034-0.029-0.051-0.044v-0.013
	c-0.017-0.014-0.034-0.03-0.051-0.048v-0.01h-0.006c-0.005-0.007-0.011-0.016-0.019-0.025c-0.008-0.005-0.018-0.012-0.025-0.018
	V89.74c-0.017-0.015-0.034-0.029-0.05-0.044v-0.013h-0.007c-0.007-0.008-0.013-0.017-0.018-0.025
	c-0.01-0.006-0.017-0.012-0.025-0.019c-0.065-0.089-0.146-0.159-0.208-0.246c-0.018-0.015-0.034-0.03-0.051-0.043v-0.015
	c-0.017-0.014-0.033-0.027-0.05-0.043V89.28h-0.005c-0.006-0.008-0.015-0.017-0.02-0.025c-0.009-0.006-0.018-0.012-0.026-0.022
	v-0.009c-0.017-0.015-0.033-0.029-0.05-0.043v-0.013h-0.006c-0.005-0.008-0.012-0.017-0.02-0.027
	c-0.008-0.004-0.017-0.011-0.025-0.019c-0.062-0.085-0.139-0.153-0.2-0.239c-0.019-0.015-0.034-0.03-0.051-0.045v-0.012
	c-0.017-0.014-0.034-0.028-0.05-0.048v-0.008h-0.006c-0.008-0.007-0.014-0.017-0.02-0.025c-0.009-0.006-0.018-0.011-0.026-0.02
	c-0.063-0.088-0.144-0.157-0.208-0.246c-0.017-0.014-0.033-0.029-0.05-0.048v-0.008c-0.017-0.015-0.034-0.03-0.051-0.044v-0.013
	c-0.017-0.016-0.032-0.03-0.049-0.045v-0.012c-0.017-0.014-0.034-0.029-0.051-0.044v-0.014c-0.017-0.014-0.034-0.03-0.049-0.043
	v-0.013c-0.019-0.014-0.034-0.03-0.051-0.044v-0.013c-0.017-0.017-0.036-0.03-0.051-0.045v-0.012
	c-0.017-0.015-0.034-0.03-0.051-0.044v-0.012c-0.017-0.014-0.034-0.03-0.051-0.044v-0.012c-0.017-0.015-0.034-0.029-0.051-0.044
	v-0.013c-0.02-0.017-0.036-0.034-0.056-0.051c-0.063-0.085-0.14-0.154-0.202-0.241c-0.017-0.013-0.034-0.03-0.049-0.048v-0.008
	c-0.018-0.014-0.034-0.027-0.051-0.043v-0.013c-0.017-0.014-0.034-0.029-0.051-0.043V87.45h-0.006
	c-0.006-0.008-0.013-0.017-0.019-0.025c-0.008-0.006-0.017-0.013-0.024-0.019v-0.013c-0.017-0.016-0.035-0.029-0.051-0.045v-0.013
	c-0.018-0.014-0.035-0.029-0.051-0.045c-0.001-0.004-0.005-0.011-0.007-0.017c-0.014-0.014-0.029-0.026-0.044-0.038v-0.013
	c-0.017-0.015-0.034-0.029-0.051-0.045v-0.012c-0.018-0.017-0.038-0.032-0.056-0.051c-0.062-0.085-0.14-0.154-0.202-0.239
	c-0.018-0.015-0.034-0.03-0.05-0.044v-0.013c-0.017-0.014-0.033-0.03-0.05-0.048v-0.008c-0.017-0.016-0.034-0.03-0.052-0.045v-0.013
	h-0.005c-0.006-0.009-0.013-0.017-0.019-0.024c-0.009-0.007-0.017-0.013-0.026-0.02v-0.013c-0.017-0.015-0.034-0.028-0.05-0.043
	v-0.013c-0.017-0.016-0.034-0.03-0.05-0.045v-0.011c-0.017-0.016-0.034-0.031-0.05-0.043v-0.015
	c-0.007-0.004-0.013-0.007-0.02-0.011c-0.019-0.024-0.038-0.046-0.056-0.071h-6.094c0.043,0.045,0.084,0.089,0.126,0.133H78.892
	L78.892,86.529L78.892,86.529z"/>
<path fill="#CE181E" d="M105.799,85.513c-0.025-0.027-0.051-0.054-0.076-0.082c-0.006-0.005-0.014-0.009-0.02-0.013
	c-0.025-0.039-0.061-0.074-0.096-0.107c-0.01-0.01-0.025-0.021-0.035-0.031c-0.029-0.04-0.061-0.073-0.096-0.107
	c-0.012-0.01-0.025-0.021-0.037-0.031v-0.015h-0.006c-0.006-0.008-0.014-0.017-0.02-0.025c-0.037-0.035-0.076-0.071-0.111-0.107
	c-0.031-0.038-0.063-0.074-0.096-0.107c-0.014-0.01-0.025-0.02-0.037-0.033v-0.011c-0.01-0.004-0.016-0.008-0.021-0.012
	c-0.01-0.015-0.025-0.031-0.037-0.044c-0.025-0.024-0.049-0.047-0.076-0.07c-0.029-0.041-0.059-0.072-0.094-0.108
	c-0.014-0.011-0.025-0.021-0.037-0.03c-0.031-0.042-0.064-0.079-0.102-0.114c-0.014-0.01-0.025-0.021-0.039-0.031
	c-0.029-0.041-0.059-0.073-0.094-0.108c-0.014-0.01-0.025-0.021-0.037-0.03c-0.029-0.041-0.063-0.074-0.096-0.108
	c-0.012-0.01-0.025-0.021-0.039-0.031v-0.012c-0.006-0.005-0.012-0.01-0.016-0.013c-0.016-0.016-0.027-0.03-0.041-0.045
	c-0.025-0.023-0.051-0.047-0.076-0.074v-0.008c-0.023-0.023-0.047-0.046-0.072-0.07c-0.016-0.016-0.031-0.032-0.047-0.049
	c-0.004-0.004-0.012-0.007-0.02-0.012V83.86c-0.01-0.01-0.023-0.021-0.035-0.031c-0.033-0.034-0.068-0.067-0.096-0.107
	c-0.045-0.042-0.088-0.084-0.133-0.125c-0.029-0.042-0.063-0.078-0.102-0.114c-0.012-0.011-0.023-0.021-0.037-0.033v-0.013
	c-0.002-0.001-0.008-0.004-0.012-0.005c-0.008-0.01-0.018-0.021-0.025-0.031c-0.031-0.031-0.064-0.06-0.094-0.089
	c-0.029-0.04-0.061-0.073-0.094-0.108c-0.016-0.01-0.027-0.02-0.041-0.031c-0.027-0.04-0.059-0.073-0.092-0.107
	c-0.014-0.011-0.027-0.021-0.037-0.035v-0.008c-0.008-0.004-0.016-0.009-0.021-0.013c-0.016-0.017-0.029-0.034-0.043-0.05
	c-0.025-0.023-0.051-0.046-0.076-0.069v-0.013c-0.045-0.042-0.088-0.084-0.133-0.126c-0.029-0.038-0.061-0.072-0.092-0.108
	c-0.016-0.009-0.029-0.021-0.041-0.03c-0.029-0.042-0.064-0.078-0.102-0.114c-0.012-0.01-0.025-0.021-0.037-0.031v-0.012h-0.008
	c-0.002-0.008-0.006-0.013-0.01-0.019c-0.039-0.037-0.076-0.072-0.115-0.108c-0.027-0.04-0.061-0.072-0.096-0.107
	c-0.01-0.01-0.025-0.021-0.035-0.031c-0.029-0.04-0.061-0.073-0.096-0.106c-0.014-0.012-0.025-0.021-0.037-0.031v-0.014h-0.006
	c-0.01-0.007-0.014-0.015-0.02-0.024c-0.039-0.037-0.076-0.072-0.115-0.108c-0.029-0.04-0.059-0.074-0.092-0.108
	c-0.014-0.009-0.027-0.021-0.037-0.029v-0.015c-0.008-0.004-0.016-0.009-0.021-0.013l-0.037-0.043
	c-0.025-0.024-0.051-0.046-0.074-0.071c-0.029-0.04-0.063-0.071-0.096-0.105c-0.014-0.013-0.025-0.022-0.037-0.034v-0.011
	c-0.008-0.004-0.014-0.008-0.02-0.013c-0.014-0.018-0.029-0.034-0.045-0.051c-0.025-0.022-0.049-0.046-0.078-0.068
	c-0.027-0.041-0.057-0.074-0.092-0.107c-0.014-0.011-0.025-0.021-0.037-0.031c-0.029-0.041-0.061-0.074-0.096-0.107
	c-0.014-0.011-0.025-0.021-0.037-0.032c-0.029-0.043-0.066-0.079-0.102-0.114c-0.012-0.01-0.023-0.021-0.039-0.031
	c-0.027-0.04-0.059-0.074-0.092-0.107c-0.014-0.011-0.027-0.021-0.039-0.031c-0.029-0.041-0.061-0.074-0.094-0.108
	c-0.014-0.009-0.025-0.02-0.039-0.031v-0.013c-0.006-0.004-0.012-0.008-0.02-0.013c-0.012-0.014-0.025-0.029-0.037-0.043
	c-0.025-0.023-0.051-0.046-0.074-0.069V80.49c-0.047-0.043-0.094-0.088-0.141-0.132c-0.027-0.039-0.059-0.074-0.094-0.105
	c-0.012-0.012-0.025-0.021-0.037-0.033c-0.029-0.04-0.061-0.072-0.096-0.107c-0.014-0.012-0.023-0.021-0.037-0.031
	c-0.031-0.043-0.064-0.077-0.102-0.114c-0.012-0.011-0.025-0.021-0.037-0.032v-0.012c-0.006-0.004-0.012-0.009-0.021-0.014
	c-0.012-0.014-0.023-0.028-0.035-0.044c-0.025-0.022-0.051-0.046-0.076-0.069v-0.013c-0.045-0.042-0.088-0.085-0.133-0.125
	c-0.029-0.041-0.061-0.073-0.096-0.108c-0.012-0.01-0.023-0.02-0.037-0.031c-0.029-0.042-0.064-0.078-0.102-0.114
	c-0.01-0.01-0.023-0.02-0.037-0.031c-0.029-0.04-0.061-0.073-0.094-0.108c-0.014-0.009-0.025-0.021-0.037-0.03
	c-0.027-0.041-0.063-0.074-0.098-0.107c-0.012-0.011-0.023-0.022-0.035-0.037v-0.008c-0.008-0.004-0.014-0.009-0.02-0.013
	c-0.012-0.014-0.025-0.029-0.039-0.043c-0.023-0.022-0.051-0.046-0.076-0.07v-0.011c-0.043-0.044-0.09-0.089-0.135-0.133
	c-0.031-0.041-0.063-0.073-0.096-0.107c-0.016-0.011-0.027-0.021-0.039-0.032c-0.029-0.038-0.061-0.073-0.094-0.107
	c-0.012-0.01-0.025-0.021-0.037-0.031c-0.031-0.042-0.068-0.077-0.102-0.114c-0.014-0.01-0.027-0.021-0.039-0.031
	c-0.029-0.039-0.059-0.073-0.094-0.106c-0.014-0.012-0.025-0.021-0.037-0.033c-0.031-0.04-0.061-0.073-0.096-0.107
	c-0.014-0.01-0.023-0.021-0.039-0.033V78.1c-0.006-0.004-0.012-0.008-0.018-0.014c-0.014-0.013-0.025-0.029-0.039-0.042
	c-0.025-0.024-0.049-0.047-0.074-0.07v-0.013c-0.025-0.022-0.051-0.045-0.076-0.069c-0.016-0.018-0.031-0.034-0.045-0.051
	c-0.004-0.004-0.012-0.008-0.02-0.013v-0.012c-0.012-0.01-0.023-0.02-0.037-0.031c-0.033-0.034-0.064-0.067-0.094-0.107
	c-0.031-0.028-0.061-0.055-0.09-0.083c-0.037-0.042-0.078-0.087-0.119-0.132c-0.02-0.018-0.043-0.037-0.063-0.055
	c-0.029-0.041-0.061-0.075-0.094-0.109c-0.014-0.009-0.027-0.019-0.037-0.032c-0.029-0.037-0.063-0.072-0.098-0.105
	c-0.01-0.011-0.023-0.021-0.035-0.033v-0.012h-0.008c-0.004-0.006-0.008-0.013-0.012-0.018c-0.037-0.035-0.076-0.072-0.113-0.107
	c-0.031-0.042-0.066-0.078-0.102-0.112c-0.012-0.011-0.025-0.023-0.039-0.033v-0.013c-0.047-0.043-0.09-0.088-0.139-0.132v-0.012
	c-0.004,0-0.008,0-0.012-0.004v-0.01h-0.014v-0.012c-0.021-0.005-0.033-0.024-0.049-0.036c-0.002-0.006-0.004-0.009-0.008-0.013
	c-0.006-0.003-0.012-0.004-0.018-0.007c-0.004-0.007-0.01-0.013-0.014-0.018h-0.014c-0.004-0.007-0.006-0.014-0.012-0.02h-0.012
	c-0.004-0.007-0.008-0.013-0.014-0.019h-0.012c-0.002-0.006-0.004-0.009-0.006-0.015c-0.008-0.001-0.014-0.002-0.018-0.005v-0.004
	h-0.016c0-0.004-0.002-0.008-0.006-0.014c-0.004-0.001-0.012-0.002-0.02-0.004v-0.008c-0.008-0.002-0.018-0.004-0.023-0.007
	c-0.002-0.004-0.004-0.008-0.008-0.013c-0.012-0.002-0.025-0.008-0.035-0.013c-0.002-0.002-0.006-0.007-0.008-0.012
	c-0.014-0.004-0.025-0.009-0.039-0.012v-0.007h-0.012V76.43c-0.014-0.004-0.023-0.01-0.039-0.015v-0.004h-0.02v-0.006
	c-0.006-0.002-0.016-0.004-0.025-0.007v-0.007c-0.004,0-0.01,0-0.018-0.001v-0.004h-0.014v-0.006h-0.02v-0.006h-0.01v-0.006
	c-0.012-0.003-0.025-0.005-0.037-0.007v-0.005h-0.02v-0.006h-0.02v-0.006c-0.016-0.001-0.029-0.004-0.043-0.006v-0.007
	c-0.018-0.003-0.033-0.005-0.051-0.006v-0.007c-0.066-0.01-0.135-0.021-0.203-0.032h-0.074c-0.064,0-0.146-0.007-0.195,0.007
	c-0.02,0-0.039,0-0.057,0.003v0.002h-0.039v0.008h-0.037v0.006h-0.031c-0.072,0.021-0.145,0.041-0.217,0.063v0.005h-0.012v0.006
	h-0.02v0.007c-0.004,0-0.008,0-0.012,0.002v0.003h-0.02v0.007c-0.012,0.004-0.023,0.009-0.037,0.014v0.004h-0.014v0.007h-0.012
	v0.006h-0.014v0.007c-0.002,0-0.006,0-0.012,0.001v0.004h-0.012v0.007h-0.012v0.005h-0.014v0.008h-0.012
	c-0.004,0.002-0.006,0.008-0.008,0.011c-0.008,0.002-0.016,0.006-0.025,0.007c-0.002,0.004-0.004,0.008-0.004,0.012
	c-0.012,0.001-0.02,0.004-0.027,0.008v0.004c-0.008,0.004-0.014,0.006-0.018,0.007c-0.004,0.005-0.006,0.01-0.006,0.013h-0.014
	v0.006c-0.008,0.004-0.014,0.005-0.02,0.008c-0.002,0.004-0.004,0.008-0.008,0.012h-0.01c-0.006,0.006-0.01,0.013-0.014,0.019
	h-0.012c-0.006,0.006-0.01,0.013-0.014,0.019h-0.014c-0.008,0.01-0.016,0.021-0.023,0.032h-0.014
	c-0.004,0.006-0.008,0.013-0.012,0.019h-0.014c-0.031,0.033-0.063,0.066-0.094,0.1c-0.014,0.012-0.029,0.026-0.045,0.039v0.013
	c-0.014,0.012-0.029,0.024-0.043,0.037c-0.031,0.033-0.059,0.064-0.09,0.095c-0.016,0.013-0.027,0.025-0.043,0.038v0.013
	c-0.018,0.012-0.029,0.025-0.043,0.038c-0.031,0.031-0.061,0.063-0.09,0.094c-0.014,0.013-0.031,0.026-0.043,0.041v0.01
	c-0.033,0.03-0.064,0.058-0.096,0.088c-0.02,0.021-0.037,0.042-0.057,0.063c-0.01,0.007-0.018,0.013-0.025,0.019v0.014
	c-0.004,0.001-0.008,0.002-0.014,0.006v0.006c-0.051,0.052-0.109,0.104-0.162,0.156v0.013c-0.059,0.058-0.117,0.113-0.178,0.176
	v0.006c-0.014,0.013-0.029,0.026-0.045,0.038c-0.027,0.031-0.057,0.064-0.088,0.095c-0.014,0.013-0.027,0.025-0.045,0.038v0.013
	c-0.049,0.048-0.1,0.098-0.15,0.145c-0.004,0.006-0.006,0.011-0.014,0.019h-0.004v0.011c-0.016,0.014-0.029,0.027-0.047,0.04
	c-0.025,0.031-0.059,0.062-0.086,0.095c-0.014,0.012-0.031,0.025-0.047,0.038v0.011c-0.012,0.014-0.027,0.026-0.043,0.04
	c-0.029,0.031-0.057,0.063-0.088,0.095c-0.016,0.013-0.027,0.025-0.043,0.036v0.015c-0.016,0.012-0.031,0.025-0.045,0.037
	c-0.029,0.031-0.059,0.064-0.09,0.093c-0.012,0.013-0.029,0.027-0.043,0.038v0.015c-0.059,0.056-0.117,0.112-0.178,0.169v0.014
	c-0.014,0.011-0.027,0.025-0.043,0.037c-0.029,0.031-0.057,0.063-0.09,0.094c-0.012,0.014-0.027,0.025-0.043,0.038v0.013
	c-0.016,0.012-0.029,0.025-0.043,0.039c-0.027,0.031-0.061,0.062-0.088,0.094c-0.018,0.013-0.031,0.025-0.045,0.038v0.013
	c-0.006,0.001-0.01,0.004-0.014,0.005v0.008c-0.055,0.052-0.107,0.104-0.164,0.156v0.012c-0.016,0.013-0.027,0.026-0.045,0.04
	c-0.027,0.031-0.057,0.063-0.088,0.093c-0.014,0.013-0.027,0.026-0.043,0.039v0.013c-0.055,0.054-0.109,0.105-0.164,0.158v0.007
	c-0.004,0.001-0.006,0.004-0.012,0.01v0.008c-0.006,0.002-0.008,0.004-0.014,0.007c-0.01,0.01-0.016,0.021-0.025,0.031
	c-0.045,0.044-0.092,0.089-0.139,0.133v0.013c-0.014,0.011-0.031,0.025-0.045,0.038c-0.029,0.031-0.057,0.062-0.088,0.093
	c-0.016,0.015-0.029,0.027-0.043,0.04v0.013l-0.164,0.156v0.007c-0.004,0.001-0.008,0.005-0.014,0.01v0.008
	c-0.004,0.003-0.008,0.004-0.012,0.008c-0.008,0.009-0.016,0.021-0.025,0.031c-0.047,0.045-0.092,0.088-0.137,0.136v0.009
	c-0.057,0.053-0.111,0.105-0.166,0.158v0.007c-0.004,0.001-0.01,0.004-0.014,0.005v0.013c-0.008,0.008-0.016,0.013-0.023,0.02
	c-0.02,0.02-0.037,0.041-0.059,0.062c-0.031,0.03-0.063,0.058-0.092,0.089v0.013c-0.057,0.052-0.111,0.105-0.166,0.157v0.007
	c-0.006,0.001-0.008,0.006-0.014,0.011v0.009c-0.008,0.007-0.016,0.013-0.025,0.019c-0.016,0.022-0.037,0.042-0.057,0.063
	c-0.029,0.03-0.063,0.059-0.092,0.088v0.012c-0.051,0.049-0.102,0.097-0.152,0.146c-0.004,0.005-0.01,0.012-0.014,0.019h-0.006
	v0.012c-0.014,0.013-0.029,0.024-0.045,0.038c-0.029,0.031-0.059,0.064-0.088,0.093c-0.014,0.015-0.029,0.027-0.043,0.04v0.013
	c-0.018,0.011-0.031,0.024-0.043,0.037c-0.031,0.032-0.061,0.063-0.09,0.094c-0.016,0.014-0.031,0.027-0.045,0.038v0.013
	c-0.015,0.013-0.028,0.025-0.044,0.038c-0.029,0.032-0.059,0.063-0.087,0.094c-0.016,0.014-0.03,0.025-0.045,0.038v0.013
	c-0.014,0.012-0.028,0.025-0.044,0.038c-0.03,0.031-0.059,0.063-0.088,0.094c-0.015,0.013-0.03,0.025-0.044,0.038v0.014
	c-0.016,0.011-0.029,0.025-0.044,0.038c-0.031,0.031-0.059,0.063-0.09,0.093c-0.014,0.014-0.028,0.025-0.042,0.04v0.012
	c-0.059,0.057-0.119,0.113-0.177,0.169c-0.043,0.061-0.099,0.105-0.152,0.158c-0.006,0.01-0.011,0.017-0.017,0.027h-0.007v0.011
	c-0.016,0.013-0.03,0.025-0.044,0.038c-0.029,0.031-0.059,0.064-0.088,0.095c-0.016,0.013-0.03,0.025-0.043,0.039v0.011
	c-0.018,0.014-0.031,0.027-0.045,0.039c-0.031,0.031-0.059,0.063-0.089,0.094c-0.016,0.013-0.03,0.026-0.044,0.043v0.008
	c-0.059,0.057-0.118,0.115-0.177,0.171c-0.042,0.058-0.094,0.101-0.146,0.15c-0.005,0.008-0.012,0.017-0.019,0.025
	c-0.004,0.003-0.008,0.004-0.012,0.007v0.013c-0.049,0.046-0.102,0.096-0.151,0.144c-0.007,0.01-0.014,0.017-0.02,0.026
	c-0.003,0-0.003,0-0.005,0.003v0.008c-0.016,0.013-0.031,0.025-0.045,0.038c-0.028,0.033-0.059,0.063-0.087,0.095
	c-0.014,0.013-0.03,0.025-0.045,0.042v0.008c-0.014,0.013-0.028,0.026-0.043,0.039c-0.029,0.032-0.058,0.063-0.088,0.094
	c-0.014,0.013-0.029,0.023-0.045,0.038v0.013c-0.014,0.012-0.028,0.025-0.042,0.037c-0.031,0.032-0.06,0.063-0.089,0.096
	c-0.016,0.012-0.03,0.023-0.044,0.038V84.1c-0.032,0.03-0.063,0.059-0.096,0.088c-0.019,0.021-0.036,0.042-0.056,0.063
	c-0.009,0.005-0.017,0.013-0.026,0.02c-0.003,0.006-0.004,0.012-0.005,0.019c-0.055,0.052-0.11,0.105-0.165,0.158v0.013
	c-0.035,0.032-0.072,0.066-0.106,0.1c-0.058,0.062-0.116,0.123-0.172,0.185c-0.025,0.021-0.05,0.045-0.075,0.069v0.011
	c-0.015,0.013-0.029,0.027-0.043,0.039c-0.03,0.031-0.059,0.063-0.09,0.094c-0.015,0.013-0.028,0.025-0.044,0.038
	c-0.041,0.056-0.09,0.097-0.138,0.146c-0.008,0.011-0.019,0.022-0.025,0.032c-0.004,0.001-0.009,0.002-0.013,0.005v0.011
	c-0.045,0.044-0.089,0.086-0.133,0.127c-0.011,0.012-0.02,0.025-0.031,0.038c-0.006,0.003-0.009,0.006-0.013,0.007v0.012
	c-0.038,0.036-0.076,0.071-0.114,0.108c-0.021,0.02-0.037,0.046-0.063,0.063c-0.004,0.012,0.001,0.004-0.005,0.012v0.007h5.405
	c0.002-0.004,0.004-0.008,0.008-0.013h0.006v-0.013c0.025-0.022,0.051-0.046,0.074-0.073v-0.008
	c0.027-0.025,0.055-0.051,0.082-0.076v-0.013c0.025-0.023,0.051-0.046,0.076-0.069v-0.014h0.008c0.002-0.004,0.008-0.012,0.01-0.019
	c0.02-0.016,0.039-0.032,0.057-0.049v-0.013c0.012-0.009,0.023-0.018,0.033-0.026c0.02-0.025,0.041-0.051,0.063-0.076
	c0.02-0.019,0.041-0.038,0.066-0.061v-0.009c0.023-0.024,0.047-0.045,0.072-0.074v-0.008h0.006c0.006-0.006,0.01-0.013,0.014-0.018
	c0.02-0.018,0.037-0.035,0.057-0.053V84.87c0.025-0.023,0.051-0.046,0.076-0.069v-0.013h0.006c0.006-0.008,0.014-0.017,0.02-0.027
	c0.018-0.017,0.037-0.034,0.057-0.049V84.7c0.025-0.022,0.051-0.046,0.076-0.069v-0.012c0.023-0.024,0.051-0.047,0.076-0.071v-0.011
	c0.023-0.024,0.049-0.047,0.074-0.075v-0.009c0.018-0.016,0.037-0.034,0.057-0.049c0.006-0.009,0.012-0.017,0.02-0.025h0.006v-0.013
	c0.025-0.023,0.049-0.047,0.076-0.07v-0.012c0.023-0.024,0.049-0.047,0.076-0.075V84.2c0.023-0.022,0.049-0.046,0.074-0.068v-0.013
	h0.008c0.004-0.008,0.012-0.016,0.018-0.025c0.02-0.017,0.035-0.033,0.057-0.055V84.03c0.025-0.022,0.051-0.045,0.076-0.072v-0.01
	c0.023-0.023,0.051-0.045,0.076-0.069v-0.013c0.025-0.022,0.051-0.046,0.076-0.07v-0.011c0.025-0.025,0.053-0.051,0.08-0.078v-0.011
	h0.008c0.004-0.007,0.008-0.013,0.012-0.019c0.018-0.017,0.037-0.034,0.059-0.05v-0.014c0.023-0.022,0.047-0.047,0.074-0.069v-0.013
	c0.025-0.022,0.049-0.046,0.074-0.073v-0.01c0.027-0.024,0.057-0.049,0.084-0.075v-0.013c0.025-0.022,0.051-0.046,0.076-0.068
	v-0.015h0.006c0.004-0.005,0.01-0.011,0.012-0.018c0.02-0.016,0.037-0.032,0.057-0.049v-0.013c0.025-0.024,0.051-0.046,0.074-0.069
	v-0.012c0.027-0.026,0.057-0.051,0.082-0.077v-0.013c0.027-0.024,0.053-0.046,0.076-0.069v-0.013h0.006
	c0.008-0.007,0.01-0.013,0.016-0.02c0.018-0.017,0.037-0.034,0.055-0.049v-0.013c0.025-0.023,0.051-0.046,0.076-0.069v-0.012
	c0.027-0.027,0.055-0.052,0.082-0.076v-0.014h0.008c0.004-0.005,0.008-0.013,0.012-0.018c0.018-0.017,0.037-0.035,0.057-0.051
	v-0.014c0.025-0.022,0.049-0.045,0.076-0.069V82.53h0.006c0.004-0.006,0.008-0.012,0.012-0.019c0.02-0.018,0.037-0.034,0.057-0.055
	v-0.008c0.027-0.025,0.057-0.05,0.082-0.076V82.36h0.008c0.004-0.008,0.008-0.014,0.012-0.02c0.018-0.017,0.037-0.034,0.055-0.051
	v-0.012c0.027-0.022,0.051-0.045,0.078-0.073v-0.009c0.025-0.022,0.051-0.046,0.074-0.069v-0.013
	c0.027-0.025,0.055-0.05,0.082-0.076v-0.012c0.027-0.024,0.053-0.047,0.076-0.071v-0.011h0.006c0.004-0.008,0.01-0.014,0.014-0.02
	c0.02-0.016,0.037-0.034,0.057-0.05v-0.013c0.012-0.008,0.021-0.017,0.031-0.027c0.021-0.023,0.043-0.049,0.063-0.075
	c0.021-0.018,0.043-0.038,0.064-0.057v-0.012c0.025-0.023,0.051-0.046,0.074-0.069v-0.013h0.008c0.002-0.005,0.01-0.012,0.012-0.02
	c0.02-0.017,0.037-0.032,0.057-0.049v-0.013c0.025-0.022,0.051-0.046,0.074-0.075v-0.008c0.029-0.024,0.055-0.049,0.082-0.075
	v-0.013c0.025-0.024,0.053-0.047,0.076-0.069v-0.013c0.021-0.018,0.041-0.034,0.059-0.051c0.004-0.007,0.008-0.013,0.012-0.019
	c0,0,0.004,0,0.006-0.004v-0.009c0.025-0.023,0.051-0.046,0.076-0.071v-0.011c0.004-0.002,0.01-0.005,0.012-0.007
	c0.018-0.02,0.033-0.038,0.051-0.057h0.014v0.011c0.006,0.004,0.012,0.009,0.018,0.013c0.018,0.02,0.033,0.038,0.051,0.057
	c0.006,0.002,0.008,0.004,0.014,0.011v0.009c0.025,0.023,0.049,0.046,0.074,0.068v0.013c0.014,0.013,0.031,0.026,0.045,0.038
	c0.008,0.011,0.016,0.021,0.025,0.031c0.004,0.003,0.008,0.005,0.014,0.007v0.011c0.023,0.024,0.049,0.048,0.072,0.071
	c0.004,0.007,0.006,0.011,0.01,0.018c0.016,0.017,0.037,0.034,0.057,0.051c0.006,0.008,0.01,0.016,0.018,0.025h0.006v0.013
	c0.027,0.022,0.053,0.047,0.076,0.069v0.013c0.02,0.018,0.037,0.034,0.059,0.051c0.004,0.009,0.01,0.017,0.018,0.026h0.006v0.012
	c0.027,0.025,0.055,0.051,0.082,0.076v0.013c0.02,0.016,0.037,0.034,0.057,0.05c0.008,0.009,0.012,0.016,0.02,0.026H97.1v0.011
	c0.025,0.024,0.051,0.046,0.076,0.075v0.007c0.027,0.026,0.053,0.05,0.082,0.076v0.013c0.027,0.025,0.053,0.051,0.082,0.08V82.1
	h0.006c0.004,0.007,0.008,0.013,0.014,0.02c0.02,0.02,0.041,0.038,0.063,0.058v0.013c0.023,0.022,0.049,0.045,0.074,0.069v0.013
	h0.008c0.004,0.008,0.012,0.016,0.02,0.025c0.018,0.018,0.035,0.032,0.055,0.049v0.014c0.029,0.023,0.055,0.05,0.082,0.075v0.011
	c0.029,0.027,0.055,0.053,0.082,0.077v0.013c0.027,0.025,0.051,0.046,0.076,0.071v0.011c0.027,0.027,0.053,0.051,0.082,0.076v0.013
	c0.027,0.025,0.053,0.05,0.082,0.076v0.013h0.006c0.006,0.009,0.014,0.017,0.02,0.026c0.02,0.016,0.039,0.033,0.057,0.05v0.012
	c0.025,0.023,0.051,0.046,0.074,0.069v0.012c0.029,0.025,0.057,0.052,0.082,0.08v0.01c0.029,0.024,0.057,0.049,0.082,0.075v0.013
	c0.027,0.022,0.051,0.046,0.076,0.069v0.013h0.008c0.006,0.01,0.012,0.017,0.018,0.026c0.02,0.017,0.039,0.033,0.057,0.05v0.013
	c0.027,0.025,0.055,0.05,0.082,0.075V83.4c0.027,0.025,0.057,0.049,0.082,0.075v0.013c0.025,0.024,0.051,0.046,0.078,0.07v0.011
	h0.004c0.008,0.008,0.014,0.019,0.02,0.027c0.02,0.015,0.037,0.034,0.059,0.05v0.013c0.025,0.025,0.053,0.052,0.082,0.075v0.013
	c0.025,0.025,0.053,0.049,0.082,0.079v0.01h0.006c0.002,0.006,0.008,0.012,0.01,0.019c0.02,0.015,0.037,0.033,0.059,0.05v0.013
	c0.027,0.025,0.055,0.049,0.082,0.079v0.008c0.027,0.025,0.055,0.051,0.082,0.076v0.013h0.006c0.006,0.008,0.012,0.017,0.02,0.025
	c0.018,0.016,0.037,0.034,0.057,0.054v0.01c0.023,0.022,0.049,0.046,0.076,0.069v0.013h0.006c0.004,0.008,0.014,0.015,0.018,0.025
	c0.02,0.016,0.039,0.034,0.059,0.051v0.013c0.027,0.024,0.053,0.051,0.082,0.074v0.014c0.027,0.025,0.053,0.05,0.082,0.076v0.011
	c0.025,0.024,0.051,0.047,0.074,0.074v0.009c0.027,0.026,0.055,0.051,0.082,0.077v0.011c0.02,0.02,0.043,0.038,0.063,0.058
	c0.021,0.025,0.043,0.051,0.066,0.075c0.01,0.011,0.023,0.022,0.035,0.032v0.013c0.025,0.022,0.051,0.046,0.076,0.073v0.008h0.006
	c0.008,0.009,0.014,0.017,0.02,0.025c0.02,0.017,0.037,0.034,0.057,0.051v0.013c0.025,0.024,0.055,0.05,0.082,0.075v0.012
	c0.027,0.027,0.055,0.051,0.082,0.076v0.013c0.025,0.024,0.049,0.046,0.076,0.069v0.013c0.027,0.025,0.053,0.051,0.082,0.076v0.013
	c0.027,0.024,0.053,0.051,0.082,0.076c0.002,0.006,0.004,0.012,0.006,0.019c0.023,0.026,0.057,0.045,0.074,0.076h5.285
	C105.836,85.537,105.814,85.53,105.799,85.513"/>
</svg>
