<?xml version="1.0" encoding="utf-8"?>
<!-- Generator: Adobe Illustrator 16.0.0, SVG Export Plug-In . SVG Version: 6.00 Build 0)  -->
<!DOCTYPE svg PUBLIC "-//W3C//DTD SVG 1.1//EN" "http://www.w3.org/Graphics/SVG/1.1/DTD/svg11.dtd">
<svg version="1.1" id="Layer_1" xmlns="http://www.w3.org/2000/svg" xmlns:xlink="http://www.w3.org/1999/xlink" x="0px" y="0px"
	 width="39.88px" height="40.716px" viewBox="-2.416 0 39.88 40.716" enable-background="new -2.416 0 39.88 40.716"
	 xml:space="preserve">
<path fill-rule="evenodd" clip-rule="evenodd" fill="#8C9BAA" d="M16.449,0.363c0.68,0,1.361,0,2.042,0
	c0.092,0.061,0.175,0.145,0.276,0.18c1.64,0.542,2.569,1.703,2.93,3.395c0.162,0,0.329,0,0.497,0c4.67,0,9.341,0.002,14.011-0.008
	c0.365,0,0.667,0.082,0.913,0.346c0,11.003,0,22.003,0,33.005c-12.985,0-25.972,0-38.958,0c0-11.03,0-22.059,0-33.088
	c0.29-0.086,0.578-0.243,0.868-0.245c4.686-0.016,9.373-0.011,14.06-0.011c0.167,0,0.335,0,0.51,0c0.247-1.452,0.998-2.5,2.29-3.154
	C16.094,0.68,16.264,0.506,16.449,0.363z M35.984,36.32c0-10.436,0-20.844,0-31.245c-12.252,0-24.474,0-36.696,0
	c0,10.434,0,20.832,0,31.245c0.621,0,1.221,0,1.851,0c0-0.195,0-0.362,0-0.531c0-9.311,0-18.624,0-27.937
	C1.139,7.063,1.203,7,1.979,7c10.445,0,20.892,0,31.337,0c0.725,0,0.868,0.142,0.868,0.858c0,9.285,0,18.568,0,27.853
	c0,0.194,0,0.392,0,0.609C34.801,36.32,35.376,36.32,35.984,36.32z M2.264,36.315c10.274,0,20.511,0,30.736,0
	c0-9.417,0-18.804,0-28.182c-10.263,0-20.49,0-30.736,0C2.264,17.536,2.264,26.912,2.264,36.315z M20.519,3.925
	C20.258,2.39,18.8,1.418,17.502,1.492c-1.499,0.083-2.619,1.343-2.708,2.433C16.693,3.925,18.591,3.925,20.519,3.925z"/>
<path fill-rule="evenodd" clip-rule="evenodd" fill="#8C9BAA" d="M32.377,22.459c0,4.308,0,8.615,0,12.925
	c0,0.802-0.076,0.877-0.875,0.877c-3.444,0-6.888,0-10.332,0c-0.67,0-0.81-0.141-0.81-0.824c0-8.646,0-17.288,0-25.933
	c0-0.693,0.154-0.847,0.851-0.847c3.401,0,6.802,0,10.204,0c0.056,0,0.112,0,0.169,0c0.669,0.013,0.791,0.131,0.792,0.794
	C32.379,13.787,32.377,18.125,32.377,22.459z M21.576,9.826c0,8.458,0,16.881,0,25.295c3.241,0,6.45,0,9.65,0
	c0-8.451,0-16.862,0-25.295C28.006,9.826,24.807,9.826,21.576,9.826z"/>
<path fill-rule="evenodd" clip-rule="evenodd" fill="#8C9BAA" d="M2.923,22.457c0-4.337,0-8.675,0.001-13.013
	c0-0.617,0.156-0.784,0.771-0.784c3.487-0.005,6.974-0.005,10.46-0.002c0.577,0.002,0.761,0.195,0.761,0.769
	c0,8.703,0,17.407,0,26.109c0,0.567-0.161,0.726-0.734,0.726c-3.53,0-7.06,0-10.589,0c-0.654,0-0.669-0.017-0.669-0.708
	C2.923,31.188,2.923,26.823,2.923,22.457z M13.77,35.144c0-8.468,0-16.891,0-25.311c-3.258,0-6.483,0-9.709,0
	c0,8.45,0,16.875,0,25.311C7.306,35.144,10.521,35.144,13.77,35.144z"/>
<path fill-rule="evenodd" clip-rule="evenodd" fill="#8C9BAA" d="M19.427,19.882c0,1.133,0.003,2.269-0.001,3.402
	c-0.002,0.627-0.433,1.057-1.066,1.067c-0.468,0.004-0.936,0.002-1.403,0c-0.637-0.005-1.099-0.45-1.1-1.085
	c-0.005-2.251-0.005-4.504,0-6.758c0-0.61,0.398-1.062,0.999-1.096c0.549-0.03,1.104-0.03,1.653,0.01
	c0.575,0.041,0.914,0.44,0.918,1.017C19.432,17.588,19.427,18.734,19.427,19.882z M17.048,16.546c0,2.234,0,4.432,0,6.643
	c0.43,0,0.82,0,1.233,0c0-2.224,0-4.422,0-6.643C17.867,16.546,17.477,16.546,17.048,16.546z"/>
<path fill-rule="evenodd" clip-rule="evenodd" fill="#8C9BAA" d="M30.917,16.948c0,1.857,0.002,3.714-0.002,5.57
	c-0.001,0.82-0.486,1.333-1.313,1.338c-2.153,0.015-4.307,0.015-6.461,0.005c-0.763-0.005-1.329-0.582-1.331-1.352
	c-0.007-3.698-0.005-7.396-0.001-11.093c0.001-0.794,0.573-1.354,1.357-1.354c2.14-0.002,4.28-0.002,6.418,0
	c0.802,0,1.328,0.519,1.33,1.318C30.92,13.238,30.917,15.094,30.917,16.948z M29.804,16.956c0-1.758-0.014-3.515,0.011-5.273
	c0.004-0.427-0.148-0.526-0.542-0.521c-1.927,0.015-3.856,0.004-5.783,0.007c-0.504,0-0.576,0.074-0.576,0.6
	c0,3.473,0.004,6.946-0.006,10.421c0,0.396,0.13,0.556,0.541,0.553c1.957-0.015,3.913-0.018,5.869,0.002
	c0.411,0.005,0.498-0.139,0.495-0.516C29.794,20.472,29.804,18.714,29.804,16.956z"/>
<path fill-rule="evenodd" clip-rule="evenodd" fill="#8C9BAA" d="M4.371,16.948c0-1.843-0.001-3.685,0-5.526
	c0.001-0.79,0.56-1.359,1.35-1.359c2.097-0.005,4.194-0.002,6.292-0.002c0.881,0.002,1.449,0.521,1.454,1.409
	c0.014,3.655,0.012,7.312,0.001,10.967c-0.002,0.895-0.701,1.439-1.443,1.421c-2.125-0.047-4.25-0.015-6.376-0.018
	c-0.736,0-1.275-0.536-1.276-1.282C4.368,20.689,4.371,18.817,4.371,16.948z M5.476,16.996c0,1.757,0.01,3.514-0.008,5.271
	c-0.003,0.382,0.125,0.478,0.49,0.475c1.969-0.015,3.938-0.015,5.907,0c0.366,0.002,0.505-0.123,0.505-0.49
	c-0.008-3.513-0.006-7.026-0.002-10.54c0.001-0.381-0.135-0.557-0.549-0.551c-1.927,0.015-3.853,0.004-5.781,0.007
	c-0.512,0-0.562,0.048-0.562,0.56C5.476,13.483,5.476,15.241,5.476,16.996z"/>
<path fill-rule="evenodd" clip-rule="evenodd" fill="#8C9BAA" d="M23.172,21.645c0.162-0.666,0.342-1.429,0.535-2.188
	c0.613-2.403,1.23-4.803,1.846-7.206c0.023-0.097,0.05-0.189,0.087-0.281c0.127-0.321,0.449-0.493,0.75-0.361
	c0.296,0.127,0.405,0.387,0.325,0.698c-0.811,3.178-1.627,6.352-2.436,9.528c-0.088,0.347-0.294,0.552-0.645,0.534
	C23.292,22.351,23.157,22.136,23.172,21.645z"/>
<path fill-rule="evenodd" clip-rule="evenodd" fill="#8C9BAA" d="M27.823,11.591c0.479-0.002,0.563,0.129,0.434,0.655
	c-0.774,3.164-1.548,6.326-2.325,9.487c-0.039,0.159-0.065,0.346-0.163,0.462c-0.165,0.193-0.395,0.269-0.643,0.109
	c-0.244-0.156-0.379-0.346-0.297-0.667c0.373-1.437,0.727-2.876,1.093-4.315c0.441-1.738,0.888-3.473,1.326-5.21
	C27.33,11.795,27.453,11.553,27.823,11.591z"/>
<path fill-rule="evenodd" clip-rule="evenodd" fill="#8C9BAA" d="M9.221,12.312c-0.156,0.643-0.342,1.432-0.54,2.218
	c-0.616,2.431-1.236,4.861-1.855,7.292c-0.096,0.374-0.401,0.64-0.676,0.557c-0.367-0.111-0.517-0.37-0.424-0.751
	c0.266-1.09,0.524-2.18,0.797-3.265c0.526-2.092,1.061-4.181,1.593-6.271c0.07-0.273,0.175-0.503,0.522-0.503
	C9.076,11.586,9.223,11.717,9.221,12.312z"/>
<path fill-rule="evenodd" clip-rule="evenodd" fill="#8C9BAA" d="M7.317,21.769c0.193-0.771,0.383-1.545,0.58-2.319
	c0.609-2.4,1.216-4.806,1.841-7.203c0.067-0.256,0.043-0.623,0.467-0.655c0.54-0.043,0.742,0.17,0.614,0.696
	c-0.347,1.429-0.697,2.855-1.049,4.279c-0.437,1.764-0.882,3.522-1.313,5.284c-0.082,0.34-0.297,0.539-0.613,0.519
	C7.529,22.351,7.275,22.174,7.317,21.769z"/>
</svg>
